<svg xmlns="http://www.w3.org/2000/svg" xmlns:v="https://svgstorm.com"
viewBox = "0 0 96 128"
width="96"
height="128">
<g fill="None" fill-opacity="0.0" stroke="#000000" stroke-opacity="0.00" stroke-width="0.3"><path d="
M 0.00 128.00 
L 29.00 128.00
C 29.40 127.42 28.50 125.47 29.00 125.00
C 29.22 123.45 31.19 122.87 32.00 122.00
C 32.65 121.09 33.68 120.06 34.00 119.00
C 34.52 117.26 34.21 113.82 34.00 112.00
C 33.79 110.21 33.03 108.95 33.00 107.00
C 32.75 107.25 32.00 107.00 32.00 107.00
C 30.26 104.75 30.74 101.80 30.00 99.00
C 29.49 102.57 28.48 106.20 31.92 109.08 C 35.36 111.96 31.62 119.74 29.74 121.74 C 27.87 123.74 18.02 122.76 16.70 119.30 C 15.38 115.84 12.98 109.79 14.33 105.33 C 15.68 100.87 16.94 96.54 18.00 92.00
C 18.67 89.12 18.35 89.22 21.00 87.00
C 23.69 84.75 26.95 82.72 29.00 81.00
C 29.32 79.82 29.16 78.68 31.00 79.00
C 28.24 75.65 24.81 76.66 22.68 71.32 C 20.54 65.98 25.70 64.69 27.00 61.00
C 25.83 54.63 25.56 47.39 25.00 41.00 C 24.45 34.61 35.88 34.33 40.00 34.00
C 44.55 33.64 49.44 33.83 54.00 34.00
C 57.50 34.13 61.28 33.55 62.00 38.00
C 77.47 28.94 73.30 52.20 71.00 61.00
C 76.42 60.85 76.40 68.22 75.22 72.22 C 74.05 76.22 66.69 76.55 67.00 81.00
C 70.10 81.23 72.44 84.86 75.00 87.00
C 77.61 89.19 77.31 89.06 78.00 92.00
C 79.82 99.77 82.36 105.96 81.07 114.07 C 79.79 122.18 70.33 126.13 65.03 118.97 C 59.73 111.81 69.04 106.05 67.00 99.00
C 65.29 100.37 63.95 104.58 63.00 107.00
C 62.27 108.84 62.14 109.94 62.00 112.00
C 61.87 113.91 61.45 117.18 62.00 119.00
C 62.29 119.95 63.45 121.23 64.00 122.00
C 64.91 122.98 66.78 123.41 67.00 125.00
C 67.50 125.47 66.60 127.42 67.00 128.00
L 96.00 128.00
L 96.00 0.00
L 0.00 0.00
L 0.00 128.00 Z"/>
</g>
<g fill="None" fill-opacity="0.0" stroke="#404245" stroke-opacity="0.96" stroke-width="0.3"><path d="
M 27.00 61.00 
C 27.17 61.90 27.83 63.59 28.00 65.00
C 28.23 66.84 28.09 71.76 31.00 72.00
C 36.09 68.41 31.56 61.17 32.00 55.00
C 43.48 58.09 55.69 56.90 67.00 54.00
C 67.17 59.35 61.56 69.39 68.00 72.00
C 71.48 71.35 69.45 64.09 71.00 62.00
C 70.99 61.50 71.00 61.00 71.00 61.00
C 73.30 52.20 77.47 28.94 62.00 38.00
C 61.28 33.55 57.50 34.13 54.00 34.00
C 49.99 34.24 43.88 34.07 40.00 34.00
C 35.88 34.33 24.45 34.61 25.00 41.00 C 25.56 47.39 25.83 54.63 27.00 61.00 Z"/>
</g>
<g fill="None" fill-opacity="0.0" stroke="#51575B" stroke-opacity="0.49" stroke-width="0.3"><path d="
M 54.00 34.00 
C 49.44 33.83 44.55 33.64 40.00 34.00
C 43.88 34.07 49.99 34.24 54.00 34.00 Z"/>
</g>
<g fill="None" fill-opacity="0.0" stroke="#B77657" stroke-opacity="0.96" stroke-width="0.3"><path d="
M 31.00 72.00 
C 29.16 73.30 28.54 74.31 26.25 71.75 C 23.97 69.18 27.80 66.29 28.00 65.00
C 27.83 63.59 27.17 61.90 27.00 61.00
C 25.70 64.69 20.54 65.98 22.68 71.32 C 24.81 76.66 28.24 75.65 31.00 79.00
C 32.90 81.30 30.34 80.90 34.00 82.00
C 35.24 82.37 38.80 82.98 40.00 83.00
C 44.08 83.06 51.99 83.06 56.00 83.00
C 57.45 82.98 60.32 82.24 62.00 82.00
C 63.63 81.76 64.53 81.78 66.00 81.00
C 66.39 80.79 67.00 81.00 67.00 81.00
C 66.69 76.55 74.05 76.22 75.22 72.22 C 76.40 68.22 76.42 60.85 71.00 61.00
C 71.00 61.00 70.99 61.50 71.00 62.00
C 71.08 65.86 74.85 76.79 68.00 72.00
C 61.56 69.39 67.17 59.35 67.00 54.00
C 55.69 56.90 43.48 58.09 32.00 55.00
C 31.56 61.17 36.09 68.41 31.00 72.00
M 44.00 63.00 
C 44.07 64.62 45.47 65.99 45.00 68.00
C 44.07 71.95 37.91 71.86 37.00 68.00
C 36.50 65.89 37.92 64.75 38.00 63.00
C 37.97 63.73 34.33 61.24 36.00 60.00
C 39.33 60.00 42.67 60.00 46.00 60.00
C 46.28 61.49 45.98 63.38 44.00 63.00
M 61.00 63.00 
C 60.92 65.65 62.59 67.56 59.75 69.75 C 56.92 71.94 54.20 70.26 54.00 67.00
C 53.97 66.50 54.00 66.00 54.00 66.00
C 54.00 65.11 54.21 63.86 54.00 63.00
C 53.86 62.43 52.21 61.20 53.00 60.00
C 56.33 60.00 59.67 60.00 63.00 60.00
C 63.28 61.49 62.98 63.38 61.00 63.00
M 52.00 71.00 
C 53.43 71.21 53.03 71.58 54.00 72.00
C 56.04 72.89 58.88 73.79 58.00 77.00
C 51.93 76.61 47.03 76.18 41.00 77.00
C 40.45 74.63 42.53 71.86 45.00 72.00
C 45.25 71.92 45.65 71.08 46.00 71.00
C 46.39 67.71 46.27 67.33 50.01 67.01 C 53.74 66.69 51.49 69.77 52.00 71.00 Z"/>
</g>
<g fill="None" fill-opacity="0.0" stroke="#424345" stroke-opacity="1.00" stroke-width="0.3"><path d="
M 38.00 63.00 
C 39.18 63.37 42.82 63.37 44.00 63.00
C 45.98 63.38 46.28 61.49 46.00 60.00
C 42.67 60.00 39.33 60.00 36.00 60.00
C 34.33 61.24 37.97 63.73 38.00 63.00 Z"/>
</g>
<g fill="None" fill-opacity="0.0" stroke="#3E3F41" stroke-opacity="1.00" stroke-width="0.3"><path d="
M 54.00 63.00 
C 54.29 62.64 57.46 63.00 58.00 63.00
C 58.37 62.96 60.70 60.69 61.00 63.00
C 62.98 63.38 63.28 61.49 63.00 60.00
C 59.67 60.00 56.33 60.00 53.00 60.00
C 52.21 61.20 53.86 62.43 54.00 63.00 Z"/>
</g>
<g fill="None" fill-opacity="0.0" stroke="#6C6D6F" stroke-opacity="1.00" stroke-width="0.3"><path d="
M 58.00 63.00 
C 58.63 63.00 60.47 62.70 61.00 63.00
C 60.70 60.69 58.37 62.96 58.00 63.00 Z"/>
</g>
<g fill="None" fill-opacity="0.0" stroke="#985B3F" stroke-opacity="1.00" stroke-width="0.3"><path d="
M 68.00 72.00 
C 74.85 76.79 71.08 65.86 71.00 62.00
C 69.45 64.09 71.48 71.35 68.00 72.00 Z"/>
</g>
<g fill="None" fill-opacity="0.0" stroke="#E9E8E7" stroke-opacity="1.00" stroke-width="0.3"><path d="
M 37.00 68.00 
C 37.98 70.63 44.06 70.52 45.00 68.00
C 45.47 65.99 44.07 64.62 44.00 63.00
C 42.82 63.37 39.18 63.37 38.00 63.00
C 37.92 64.75 36.50 65.89 37.00 68.00
M 43.00 64.00 
C 45.41 65.35 43.52 69.94 40.77 68.21 C 38.02 66.48 40.57 62.64 43.00 64.00 Z"/>
</g>
<g fill="None" fill-opacity="0.0" stroke="#E8E3E0" stroke-opacity="1.00" stroke-width="0.3"><path d="
M 54.00 66.00 
C 56.76 60.45 62.05 68.78 56.00 69.00
C 55.59 68.17 55.03 67.13 54.00 67.00
C 54.20 70.26 56.92 71.94 59.75 69.75 C 62.59 67.56 60.92 65.65 61.00 63.00
C 60.47 62.70 58.63 63.00 58.00 63.00
C 57.46 63.00 54.29 62.64 54.00 63.00
C 54.21 63.86 54.00 65.11 54.00 66.00 Z"/>
</g>
<g fill="None" fill-opacity="0.0" stroke="#47494C" stroke-opacity="1.00" stroke-width="0.3"><path d="
M 43.00 64.00 
C 40.57 62.64 38.02 66.48 40.77 68.21 C 43.52 69.94 45.41 65.35 43.00 64.00 Z"/>
</g>
<g fill="None" fill-opacity="0.0" stroke="#47494C" stroke-opacity="1.00" stroke-width="0.3"><path d="
M 54.00 66.00 
C 54.00 66.00 53.97 66.50 54.00 67.00
C 55.03 67.13 55.59 68.17 56.00 69.00
C 62.05 68.78 56.76 60.45 54.00 66.00 Z"/>
</g>
<g fill="None" fill-opacity="0.0" stroke="#9C5B3E" stroke-opacity="1.00" stroke-width="0.3"><path d="
M 31.00 72.00 
C 28.09 71.76 28.23 66.84 28.00 65.00
C 27.80 66.29 23.97 69.18 26.25 71.75 C 28.54 74.31 29.16 73.30 31.00 72.00 Z"/>
</g>
<g fill="None" fill-opacity="0.0" stroke="#995739" stroke-opacity="1.00" stroke-width="0.3"><path d="
M 46.00 71.00 
C 47.58 70.63 50.39 70.77 52.00 71.00
C 51.49 69.77 53.74 66.69 50.01 67.01 C 46.27 67.33 46.39 67.71 46.00 71.00 Z"/>
</g>
<g fill="None" fill-opacity="0.0" stroke="#D8AF9A" stroke-opacity="1.00" stroke-width="0.3"><path d="
M 45.00 68.00 
C 44.06 70.52 37.98 70.63 37.00 68.00
C 37.91 71.86 44.07 71.95 45.00 68.00 Z"/>
</g>
<g fill="None" fill-opacity="0.0" stroke="#644C42" stroke-opacity="1.00" stroke-width="0.3"><path d="
M 45.00 72.00 
C 46.02 72.33 53.30 72.64 54.00 72.00
C 53.03 71.58 53.43 71.21 52.00 71.00
C 50.39 70.77 47.58 70.63 46.00 71.00
C 45.65 71.08 45.25 71.92 45.00 72.00 Z"/>
</g>
<g fill="None" fill-opacity="0.0" stroke="#3D3E41" stroke-opacity="1.00" stroke-width="0.3"><path d="
M 54.00 72.00 
C 53.30 72.64 46.02 72.33 45.00 72.00
C 42.53 71.86 40.45 74.63 41.00 77.00
C 47.03 76.18 51.93 76.61 58.00 77.00
C 58.88 73.79 56.04 72.89 54.00 72.00 Z"/>
</g>
<g fill="None" fill-opacity="0.0" stroke="#E0985B" stroke-opacity="0.98" stroke-width="0.3"><path d="
M 29.00 81.00 
C 28.20 83.96 28.77 88.92 29.00 92.00
C 29.12 93.57 28.94 96.19 29.00 97.00
C 29.44 97.40 29.85 98.44 30.00 99.00
C 30.74 101.80 30.26 104.75 32.00 107.00
C 31.97 106.98 32.66 106.02 33.00 106.00
C 36.88 105.76 40.22 105.24 44.00 105.00
C 44.06 104.99 44.00 104.00 44.00 104.00
C 46.30 99.98 45.34 94.02 43.00 91.00
C 40.77 88.11 35.20 83.22 34.00 82.00
C 30.34 80.90 32.90 81.30 31.00 79.00
C 29.16 78.68 29.32 79.82 29.00 81.00 Z"/>
</g>
<g fill="None" fill-opacity="0.0" stroke="#DFEAF3" stroke-opacity="0.92" stroke-width="0.3"><path d="
M 21.00 87.00 
C 21.80 90.20 27.60 89.98 29.00 92.00
C 28.77 88.92 28.20 83.96 29.00 81.00
C 26.95 82.72 23.69 84.75 21.00 87.00 Z"/>
</g>
<g fill="None" fill-opacity="0.0" stroke="#DC965C" stroke-opacity="0.98" stroke-width="0.3"><path d="
M 62.00 82.00 
C 62.44 81.73 61.69 85.43 59.75 85.75 C 57.81 86.08 55.44 87.74 54.00 89.00
C 48.46 93.83 51.61 97.58 51.00 104.00
C 50.95 104.50 51.00 105.00 51.00 105.00
C 53.56 105.19 60.99 107.84 63.00 107.00
C 63.95 104.58 65.29 100.37 67.00 99.00
C 66.87 98.54 67.14 97.46 67.00 97.00
C 66.62 95.77 66.07 94.77 66.00 93.00
C 65.95 91.67 66.00 90.33 66.00 89.00
C 66.00 86.37 65.76 83.62 66.00 81.00
C 64.53 81.78 63.63 81.76 62.00 82.00 Z"/>
</g>
<g fill="None" fill-opacity="0.0" stroke="#E1C2A8" stroke-opacity="1.00" stroke-width="0.3"><path d="
M 66.00 89.00 
C 66.30 86.78 67.26 83.92 67.00 81.00
C 67.00 81.00 66.39 80.79 66.00 81.00
C 65.76 83.62 66.00 86.37 66.00 89.00 Z"/>
</g>
<g fill="None" fill-opacity="0.0" stroke="#DFE9F0" stroke-opacity="0.93" stroke-width="0.3"><path d="
M 66.00 89.00 
C 66.00 90.33 65.95 91.67 66.00 93.00
C 66.92 90.27 74.43 90.42 75.00 87.00
C 72.44 84.86 70.10 81.23 67.00 81.00
C 67.26 83.92 66.30 86.78 66.00 89.00 Z"/>
</g>
<g fill="None" fill-opacity="0.0" stroke="#A4B1BC" stroke-opacity="1.00" stroke-width="0.3"><path d="
M 43.00 91.00 
C 44.59 91.43 51.83 90.08 54.00 89.00
C 55.44 87.74 57.81 86.08 59.75 85.75 C 61.69 85.43 62.44 81.73 62.00 82.00
C 60.32 82.24 57.45 82.98 56.00 83.00
C 47.65 86.36 48.34 86.35 40.00 83.00
C 38.80 82.98 35.24 82.37 34.00 82.00
C 35.20 83.22 40.77 88.11 43.00 91.00 Z"/>
</g>
<g fill="None" fill-opacity="0.0" stroke="#855039" stroke-opacity="1.00" stroke-width="0.3"><path d="
M 40.00 83.00 
C 48.34 86.35 47.65 86.36 56.00 83.00
C 51.99 83.06 44.08 83.06 40.00 83.00 Z"/>
</g>
<g fill="None" fill-opacity="0.0" stroke="#B9CAD7" stroke-opacity="0.93" stroke-width="0.3"><path d="
M 18.00 92.00 
C 19.66 93.89 26.53 94.74 29.00 97.00
C 28.94 96.19 29.12 93.57 29.00 92.00
C 27.60 89.98 21.80 90.20 21.00 87.00
C 18.35 89.22 18.67 89.12 18.00 92.00 Z"/>
</g>
<g fill="None" fill-opacity="0.0" stroke="#B9CAD7" stroke-opacity="0.93" stroke-width="0.3"><path d="
M 66.00 93.00 
C 66.07 94.77 66.62 95.77 67.00 97.00
C 69.45 94.40 76.22 94.03 78.00 92.00
C 77.31 89.06 77.61 89.19 75.00 87.00
C 74.43 90.42 66.92 90.27 66.00 93.00 Z"/>
</g>
<g fill="None" fill-opacity="0.0" stroke="#D0DCE6" stroke-opacity="1.00" stroke-width="0.3"><path d="
M 43.00 91.00 
C 45.34 94.02 46.30 99.98 44.00 104.00
C 46.07 103.72 48.93 103.72 51.00 104.00
C 51.61 97.58 48.46 93.83 54.00 89.00
C 51.83 90.08 44.59 91.43 43.00 91.00 Z"/>
</g>
<g fill="None" fill-opacity="0.0" stroke="#AF7254" stroke-opacity="0.93" stroke-width="0.3"><path d="
M 30.00 99.00 
C 29.85 98.44 29.44 97.40 29.00 97.00
C 26.53 94.74 19.66 93.89 18.00 92.00
C 16.94 96.54 15.68 100.87 14.33 105.33 C 12.98 109.79 15.38 115.84 16.70 119.30 C 18.02 122.76 27.87 123.74 29.74 121.74 C 31.62 119.74 35.36 111.96 31.92 109.08 C 28.48 106.20 29.49 102.57 30.00 99.00 Z"/>
</g>
<g fill="None" fill-opacity="0.0" stroke="#B07154" stroke-opacity="0.93" stroke-width="0.3"><path d="
M 67.00 97.00 
C 67.14 97.46 66.87 98.54 67.00 99.00
C 69.04 106.05 59.73 111.81 65.03 118.97 C 70.33 126.13 79.79 122.18 81.07 114.07 C 82.36 105.96 79.82 99.77 78.00 92.00
C 76.22 94.03 69.45 94.40 67.00 97.00 Z"/>
</g>
<g fill="None" fill-opacity="0.0" stroke="#A5B3D6" stroke-opacity="1.00" stroke-width="0.3"><path d="
M 44.00 105.00 
C 46.26 104.86 48.74 104.83 51.00 105.00
C 51.00 105.00 50.95 104.50 51.00 104.00
C 48.93 103.72 46.07 103.72 44.00 104.00
C 44.00 104.00 44.06 104.99 44.00 105.00 Z"/>
</g>
<g fill="None" fill-opacity="0.0" stroke="#6668BD" stroke-opacity="0.98" stroke-width="0.3"><path d="
M 33.00 106.00 
C 33.01 106.00 33.00 107.00 33.00 107.00
C 33.03 108.95 33.79 110.21 34.00 112.00
C 35.39 114.08 43.43 115.58 46.00 114.00
C 46.23 112.44 46.32 113.07 47.00 112.00
C 48.37 109.84 47.60 109.80 49.00 112.00
C 49.55 112.87 49.81 112.69 50.00 114.00
C 52.48 115.52 60.77 114.19 62.00 112.00
C 62.14 109.94 62.27 108.84 63.00 107.00
C 60.99 107.84 53.56 105.19 51.00 105.00
C 48.74 104.83 46.26 104.86 44.00 105.00
C 40.22 105.24 36.88 105.76 33.00 106.00 Z"/>
</g>
<g fill="None" fill-opacity="0.0" stroke="#B3785F" stroke-opacity="0.62" stroke-width="0.3"><path d="
M 32.00 107.00 
C 32.00 107.00 32.75 107.25 33.00 107.00
C 33.00 107.00 33.01 106.00 33.00 106.00
C 32.66 106.02 31.97 106.98 32.00 107.00 Z"/>
</g>
<g fill="None" fill-opacity="0.0" stroke="#000000" stroke-opacity="0.00" stroke-width="0.3"><path d="
M 47.00 112.00 
C 46.40 113.90 47.00 117.00 47.00 119.00
C 47.00 120.00 47.00 121.00 47.00 122.00
C 47.00 123.00 47.00 124.00 47.00 125.00
C 47.00 126.00 47.00 127.00 47.00 128.00
L 49.00 128.00
C 49.00 127.00 49.00 126.00 49.00 125.00
C 49.00 124.00 49.00 123.00 49.00 122.00
C 49.00 121.00 49.00 120.00 49.00 119.00
C 49.00 117.00 49.60 113.90 49.00 112.00
C 47.60 109.80 48.37 109.84 47.00 112.00 Z"/>
</g>
<g fill="None" fill-opacity="0.0" stroke="#4B4CA1" stroke-opacity="0.93" stroke-width="0.3"><path d="
M 34.00 119.00 
C 37.23 117.43 42.57 120.18 46.00 119.00
C 45.61 117.87 45.83 115.19 46.00 114.00
C 43.43 115.58 35.39 114.08 34.00 112.00
C 34.21 113.82 34.52 117.26 34.00 119.00 Z"/>
</g>
<g fill="None" fill-opacity="0.0" stroke="#595CAC" stroke-opacity="0.49" stroke-width="0.3"><path d="
M 46.00 114.00 
C 45.83 115.19 45.61 117.87 46.00 119.00
C 46.27 118.75 47.00 119.00 47.00 119.00
C 47.00 117.00 46.40 113.90 47.00 112.00
C 46.32 113.07 46.23 112.44 46.00 114.00 Z"/>
</g>
<g fill="None" fill-opacity="0.0" stroke="#595CAC" stroke-opacity="0.49" stroke-width="0.3"><path d="
M 49.00 119.00 
C 49.27 118.75 50.00 119.00 50.00 119.00
C 50.39 117.87 50.17 115.19 50.00 114.00
C 49.81 112.69 49.55 112.87 49.00 112.00
C 49.60 113.90 49.00 117.00 49.00 119.00 Z"/>
</g>
<g fill="None" fill-opacity="0.0" stroke="#4B4CA1" stroke-opacity="0.93" stroke-width="0.3"><path d="
M 50.00 114.00 
C 50.17 115.19 50.39 117.87 50.00 119.00
C 53.43 120.18 58.77 117.43 62.00 119.00
C 61.45 117.18 61.87 113.91 62.00 112.00
C 60.77 114.19 52.48 115.52 50.00 114.00 Z"/>
</g>
<g fill="None" fill-opacity="0.0" stroke="#DCDCDC" stroke-opacity="0.99" stroke-width="0.3"><path d="
M 32.00 122.00 
C 31.40 122.83 30.69 124.37 30.00 125.00
C 35.33 125.00 40.67 125.00 46.00 125.00
C 45.74 124.76 46.00 122.39 46.00 122.00
C 46.00 121.61 45.74 119.24 46.00 119.00
C 42.57 120.18 37.23 117.43 34.00 119.00
C 33.68 120.06 32.65 121.09 32.00 122.00 Z"/>
</g>
<g fill="None" fill-opacity="0.0" stroke="#E3E5E7" stroke-opacity="0.50" stroke-width="0.3"><path d="
M 46.00 122.00 
C 46.27 121.75 47.00 122.00 47.00 122.00
C 47.00 121.00 47.00 120.00 47.00 119.00
C 47.00 119.00 46.27 118.75 46.00 119.00
C 45.74 119.24 46.00 121.61 46.00 122.00 Z"/>
</g>
<g fill="None" fill-opacity="0.0" stroke="#E3E5E7" stroke-opacity="0.50" stroke-width="0.3"><path d="
M 49.00 122.00 
C 49.27 121.75 50.00 122.00 50.00 122.00
C 50.00 121.61 50.26 119.24 50.00 119.00
C 50.00 119.00 49.27 118.75 49.00 119.00
C 49.00 120.00 49.00 121.00 49.00 122.00 Z"/>
</g>
<g fill="None" fill-opacity="0.0" stroke="#DCDCDC" stroke-opacity="0.99" stroke-width="0.3"><path d="
M 50.00 122.00 
C 50.00 122.39 50.26 124.76 50.00 125.00
C 55.33 125.00 60.67 125.00 66.00 125.00
C 65.19 124.27 64.61 122.85 64.00 122.00
C 63.45 121.23 62.29 119.95 62.00 119.00
C 58.77 117.43 53.43 120.18 50.00 119.00
C 50.26 119.24 50.00 121.61 50.00 122.00 Z"/>
</g>
<g fill="None" fill-opacity="0.0" stroke="#D7D7D7" stroke-opacity="0.37" stroke-width="0.3"><path d="
M 29.00 125.00 
C 29.27 124.75 30.00 125.00 30.00 125.00
C 30.69 124.37 31.40 122.83 32.00 122.00
C 31.19 122.87 29.22 123.45 29.00 125.00 Z"/>
</g>
<g fill="None" fill-opacity="0.0" stroke="#D8D9D8" stroke-opacity="0.73" stroke-width="0.3"><path d="
M 46.00 125.00 
C 46.50 125.00 47.00 125.00 47.00 125.00
C 47.00 124.00 47.00 123.00 47.00 122.00
C 47.00 122.00 46.27 121.75 46.00 122.00
C 46.00 122.39 45.74 124.76 46.00 125.00 Z"/>
</g>
<g fill="None" fill-opacity="0.0" stroke="#D8D9D8" stroke-opacity="0.73" stroke-width="0.3"><path d="
M 49.00 125.00 
C 49.27 124.75 50.00 125.00 50.00 125.00
C 50.26 124.76 50.00 122.39 50.00 122.00
C 50.00 122.00 49.27 121.75 49.00 122.00
C 49.00 123.00 49.00 124.00 49.00 125.00 Z"/>
</g>
<g fill="None" fill-opacity="0.0" stroke="#D7D7D7" stroke-opacity="0.37" stroke-width="0.3"><path d="
M 66.00 125.00 
C 66.50 125.00 67.00 125.00 67.00 125.00
C 66.78 123.41 64.91 122.98 64.00 122.00
C 64.61 122.85 65.19 124.27 66.00 125.00 Z"/>
</g>
<g fill="None" fill-opacity="0.0" stroke="#C78B59" stroke-opacity="0.99" stroke-width="0.3"><path d="
M 29.00 128.00 
L 47.00 128.00
C 47.00 127.00 47.00 126.00 47.00 125.00
C 47.00 125.00 46.50 125.00 46.00 125.00
C 40.67 125.00 35.33 125.00 30.00 125.00
C 30.00 125.00 29.27 124.75 29.00 125.00
C 28.50 125.47 29.40 127.42 29.00 128.00 Z"/>
</g>
<g fill="None" fill-opacity="0.0" stroke="#C78B59" stroke-opacity="0.99" stroke-width="0.3"><path d="
M 49.00 128.00 
L 67.00 128.00
C 66.60 127.42 67.50 125.47 67.00 125.00
C 67.00 125.00 66.50 125.00 66.00 125.00
C 60.67 125.00 55.33 125.00 50.00 125.00
C 50.00 125.00 49.27 124.75 49.00 125.00
C 49.00 126.00 49.00 127.00 49.00 128.00 Z"/>
</g>
<g fill="#000000" fill-opacity="0.00" stroke="None">
<path d="
M 0.00 128.00 
L 29.00 128.00
C 29.40 127.42 28.50 125.47 29.00 125.00
C 29.22 123.45 31.19 122.87 32.00 122.00
C 32.65 121.09 33.68 120.06 34.00 119.00
C 34.52 117.26 34.21 113.82 34.00 112.00
C 33.79 110.21 33.03 108.95 33.00 107.00
C 32.75 107.25 32.00 107.00 32.00 107.00
C 30.26 104.75 30.74 101.80 30.00 99.00
C 29.49 102.57 28.48 106.20 31.92 109.08 C 35.36 111.96 31.62 119.74 29.74 121.74 C 27.87 123.74 18.02 122.76 16.70 119.30 C 15.38 115.84 12.98 109.79 14.33 105.33 C 15.68 100.87 16.94 96.54 18.00 92.00
C 18.67 89.12 18.35 89.22 21.00 87.00
C 23.69 84.75 26.95 82.72 29.00 81.00
C 29.32 79.82 29.16 78.68 31.00 79.00
C 28.24 75.65 24.81 76.66 22.68 71.32 C 20.54 65.98 25.70 64.69 27.00 61.00
C 25.83 54.63 25.56 47.39 25.00 41.00 C 24.45 34.61 35.88 34.33 40.00 34.00
C 44.55 33.64 49.44 33.83 54.00 34.00
C 57.50 34.13 61.28 33.55 62.00 38.00
C 77.47 28.94 73.30 52.20 71.00 61.00
C 76.42 60.85 76.40 68.22 75.22 72.22 C 74.05 76.22 66.69 76.55 67.00 81.00
C 70.10 81.23 72.44 84.86 75.00 87.00
C 77.61 89.19 77.31 89.06 78.00 92.00
C 79.82 99.77 82.36 105.96 81.07 114.07 C 79.79 122.18 70.33 126.13 65.03 118.97 C 59.73 111.81 69.04 106.05 67.00 99.00
C 65.29 100.37 63.95 104.58 63.00 107.00
C 62.27 108.84 62.14 109.94 62.00 112.00
C 61.87 113.91 61.45 117.18 62.00 119.00
C 62.29 119.95 63.45 121.23 64.00 122.00
C 64.91 122.98 66.78 123.41 67.00 125.00
C 67.50 125.47 66.60 127.42 67.00 128.00
L 96.00 128.00
L 96.00 0.00
L 0.00 0.00
L 0.00 128.00 Z"/>
</g>
<g fill="#404245" fill-opacity="0.96" stroke="None">
<path d="
M 27.00 61.00 
C 27.17 61.90 27.83 63.59 28.00 65.00
C 28.23 66.84 28.09 71.76 31.00 72.00
C 36.09 68.41 31.56 61.17 32.00 55.00
C 43.48 58.09 55.69 56.90 67.00 54.00
C 67.17 59.35 61.56 69.39 68.00 72.00
C 71.48 71.35 69.45 64.09 71.00 62.00
C 70.99 61.50 71.00 61.00 71.00 61.00
C 73.30 52.20 77.47 28.94 62.00 38.00
C 61.28 33.55 57.50 34.13 54.00 34.00
C 49.99 34.24 43.88 34.07 40.00 34.00
C 35.88 34.33 24.45 34.61 25.00 41.00 C 25.56 47.39 25.83 54.63 27.00 61.00 Z"/>
</g>
<g fill="#51575B" fill-opacity="0.49" stroke="None">
<path d="
M 54.00 34.00 
C 49.44 33.83 44.55 33.64 40.00 34.00
C 43.88 34.07 49.99 34.24 54.00 34.00 Z"/>
</g>
<g fill="#B77657" fill-opacity="0.96" stroke="None">
<path d="
M 31.00 72.00 
C 29.16 73.30 28.54 74.31 26.25 71.75 C 23.97 69.18 27.80 66.29 28.00 65.00
C 27.83 63.59 27.17 61.90 27.00 61.00
C 25.70 64.69 20.54 65.98 22.68 71.32 C 24.81 76.66 28.24 75.65 31.00 79.00
C 32.90 81.30 30.34 80.90 34.00 82.00
C 35.24 82.37 38.80 82.98 40.00 83.00
C 44.08 83.06 51.99 83.06 56.00 83.00
C 57.45 82.98 60.32 82.24 62.00 82.00
C 63.63 81.76 64.53 81.78 66.00 81.00
C 66.39 80.79 67.00 81.00 67.00 81.00
C 66.69 76.55 74.05 76.22 75.22 72.22 C 76.40 68.22 76.42 60.85 71.00 61.00
C 71.00 61.00 70.99 61.50 71.00 62.00
C 71.08 65.86 74.85 76.79 68.00 72.00
C 61.56 69.39 67.17 59.35 67.00 54.00
C 55.69 56.90 43.48 58.09 32.00 55.00
C 31.56 61.17 36.09 68.41 31.00 72.00
M 44.00 63.00 
C 44.07 64.62 45.47 65.99 45.00 68.00
C 44.07 71.95 37.91 71.86 37.00 68.00
C 36.50 65.89 37.92 64.75 38.00 63.00
C 37.97 63.73 34.33 61.24 36.00 60.00
C 39.33 60.00 42.67 60.00 46.00 60.00
C 46.28 61.49 45.98 63.38 44.00 63.00
M 61.00 63.00 
C 60.92 65.65 62.59 67.56 59.75 69.75 C 56.92 71.94 54.20 70.26 54.00 67.00
C 53.97 66.50 54.00 66.00 54.00 66.00
C 54.00 65.11 54.21 63.86 54.00 63.00
C 53.86 62.43 52.21 61.20 53.00 60.00
C 56.33 60.00 59.67 60.00 63.00 60.00
C 63.28 61.49 62.98 63.38 61.00 63.00
M 52.00 71.00 
C 53.43 71.21 53.03 71.58 54.00 72.00
C 56.04 72.89 58.88 73.79 58.00 77.00
C 51.93 76.61 47.03 76.18 41.00 77.00
C 40.45 74.63 42.53 71.86 45.00 72.00
C 45.25 71.92 45.65 71.08 46.00 71.00
C 46.39 67.71 46.27 67.33 50.01 67.01 C 53.74 66.69 51.49 69.77 52.00 71.00 Z"/>
</g>
<g fill="#424345" fill-opacity="1.00" stroke="None">
<path d="
M 38.00 63.00 
C 39.18 63.37 42.82 63.37 44.00 63.00
C 45.98 63.38 46.28 61.49 46.00 60.00
C 42.67 60.00 39.33 60.00 36.00 60.00
C 34.33 61.24 37.97 63.73 38.00 63.00 Z"/>
</g>
<g fill="#3E3F41" fill-opacity="1.00" stroke="None">
<path d="
M 54.00 63.00 
C 54.29 62.64 57.46 63.00 58.00 63.00
C 58.37 62.96 60.70 60.69 61.00 63.00
C 62.98 63.38 63.28 61.49 63.00 60.00
C 59.67 60.00 56.33 60.00 53.00 60.00
C 52.21 61.20 53.86 62.43 54.00 63.00 Z"/>
</g>
<g fill="#6C6D6F" fill-opacity="1.00" stroke="None">
<path d="
M 58.00 63.00 
C 58.63 63.00 60.47 62.70 61.00 63.00
C 60.70 60.69 58.37 62.96 58.00 63.00 Z"/>
</g>
<g fill="#985B3F" fill-opacity="1.00" stroke="None">
<path d="
M 68.00 72.00 
C 74.85 76.79 71.08 65.86 71.00 62.00
C 69.45 64.09 71.48 71.35 68.00 72.00 Z"/>
</g>
<g fill="#E9E8E7" fill-opacity="1.00" stroke="None">
<path d="
M 37.00 68.00 
C 37.98 70.63 44.06 70.52 45.00 68.00
C 45.47 65.99 44.07 64.62 44.00 63.00
C 42.82 63.37 39.18 63.37 38.00 63.00
C 37.92 64.75 36.50 65.89 37.00 68.00
M 43.00 64.00 
C 45.41 65.35 43.52 69.94 40.77 68.21 C 38.02 66.48 40.57 62.64 43.00 64.00 Z"/>
</g>
<g fill="#E8E3E0" fill-opacity="1.00" stroke="None">
<path d="
M 54.00 66.00 
C 56.76 60.45 62.05 68.78 56.00 69.00
C 55.59 68.17 55.03 67.13 54.00 67.00
C 54.20 70.26 56.92 71.94 59.75 69.75 C 62.59 67.56 60.92 65.65 61.00 63.00
C 60.47 62.70 58.63 63.00 58.00 63.00
C 57.46 63.00 54.29 62.64 54.00 63.00
C 54.21 63.86 54.00 65.11 54.00 66.00 Z"/>
</g>
<g fill="#47494C" fill-opacity="1.00" stroke="None">
<path d="
M 43.00 64.00 
C 40.57 62.64 38.02 66.48 40.77 68.21 C 43.52 69.94 45.41 65.35 43.00 64.00 Z"/>
</g>
<g fill="#47494C" fill-opacity="1.00" stroke="None">
<path d="
M 54.00 66.00 
C 54.00 66.00 53.97 66.50 54.00 67.00
C 55.03 67.13 55.59 68.17 56.00 69.00
C 62.05 68.78 56.76 60.45 54.00 66.00 Z"/>
</g>
<g fill="#9C5B3E" fill-opacity="1.00" stroke="None">
<path d="
M 31.00 72.00 
C 28.09 71.76 28.23 66.84 28.00 65.00
C 27.80 66.29 23.97 69.18 26.25 71.75 C 28.54 74.31 29.16 73.30 31.00 72.00 Z"/>
</g>
<g fill="#995739" fill-opacity="1.00" stroke="None">
<path d="
M 46.00 71.00 
C 47.58 70.63 50.39 70.77 52.00 71.00
C 51.49 69.77 53.74 66.69 50.01 67.01 C 46.27 67.33 46.39 67.71 46.00 71.00 Z"/>
</g>
<g fill="#D8AF9A" fill-opacity="1.00" stroke="None">
<path d="
M 45.00 68.00 
C 44.06 70.52 37.98 70.63 37.00 68.00
C 37.91 71.86 44.07 71.95 45.00 68.00 Z"/>
</g>
<g fill="#644C42" fill-opacity="1.00" stroke="None">
<path d="
M 45.00 72.00 
C 46.02 72.33 53.30 72.64 54.00 72.00
C 53.03 71.58 53.43 71.21 52.00 71.00
C 50.39 70.77 47.58 70.63 46.00 71.00
C 45.65 71.08 45.25 71.92 45.00 72.00 Z"/>
</g>
<g fill="#3D3E41" fill-opacity="1.00" stroke="None">
<path d="
M 54.00 72.00 
C 53.30 72.64 46.02 72.33 45.00 72.00
C 42.53 71.86 40.45 74.63 41.00 77.00
C 47.03 76.18 51.93 76.61 58.00 77.00
C 58.88 73.79 56.04 72.89 54.00 72.00 Z"/>
</g>
<g fill="#E0985B" fill-opacity="0.98" stroke="None">
<path d="
M 29.00 81.00 
C 28.20 83.96 28.77 88.92 29.00 92.00
C 29.12 93.57 28.94 96.19 29.00 97.00
C 29.44 97.40 29.85 98.44 30.00 99.00
C 30.74 101.80 30.26 104.75 32.00 107.00
C 31.97 106.98 32.66 106.02 33.00 106.00
C 36.88 105.76 40.22 105.24 44.00 105.00
C 44.06 104.99 44.00 104.00 44.00 104.00
C 46.30 99.98 45.34 94.02 43.00 91.00
C 40.77 88.11 35.20 83.22 34.00 82.00
C 30.34 80.90 32.90 81.30 31.00 79.00
C 29.16 78.68 29.32 79.82 29.00 81.00 Z"/>
</g>
<g fill="#DFEAF3" fill-opacity="0.92" stroke="None">
<path d="
M 21.00 87.00 
C 21.80 90.20 27.60 89.98 29.00 92.00
C 28.77 88.92 28.20 83.96 29.00 81.00
C 26.95 82.72 23.69 84.75 21.00 87.00 Z"/>
</g>
<g fill="#DC965C" fill-opacity="0.98" stroke="None">
<path d="
M 62.00 82.00 
C 62.44 81.73 61.69 85.43 59.75 85.75 C 57.81 86.08 55.44 87.74 54.00 89.00
C 48.46 93.83 51.61 97.58 51.00 104.00
C 50.95 104.50 51.00 105.00 51.00 105.00
C 53.56 105.19 60.99 107.84 63.00 107.00
C 63.95 104.58 65.29 100.37 67.00 99.00
C 66.87 98.54 67.14 97.46 67.00 97.00
C 66.62 95.77 66.07 94.77 66.00 93.00
C 65.95 91.67 66.00 90.33 66.00 89.00
C 66.00 86.37 65.76 83.62 66.00 81.00
C 64.53 81.78 63.63 81.76 62.00 82.00 Z"/>
</g>
<g fill="#E1C2A8" fill-opacity="1.00" stroke="None">
<path d="
M 66.00 89.00 
C 66.30 86.78 67.26 83.92 67.00 81.00
C 67.00 81.00 66.39 80.79 66.00 81.00
C 65.76 83.62 66.00 86.37 66.00 89.00 Z"/>
</g>
<g fill="#DFE9F0" fill-opacity="0.93" stroke="None">
<path d="
M 66.00 89.00 
C 66.00 90.33 65.95 91.67 66.00 93.00
C 66.92 90.27 74.43 90.42 75.00 87.00
C 72.44 84.86 70.10 81.23 67.00 81.00
C 67.26 83.92 66.30 86.78 66.00 89.00 Z"/>
</g>
<g fill="#A4B1BC" fill-opacity="1.00" stroke="None">
<path d="
M 43.00 91.00 
C 44.59 91.43 51.83 90.08 54.00 89.00
C 55.44 87.74 57.81 86.08 59.75 85.75 C 61.69 85.43 62.44 81.73 62.00 82.00
C 60.32 82.24 57.45 82.98 56.00 83.00
C 47.65 86.36 48.34 86.35 40.00 83.00
C 38.80 82.98 35.24 82.37 34.00 82.00
C 35.20 83.22 40.77 88.11 43.00 91.00 Z"/>
</g>
<g fill="#855039" fill-opacity="1.00" stroke="None">
<path d="
M 40.00 83.00 
C 48.34 86.35 47.65 86.36 56.00 83.00
C 51.99 83.06 44.08 83.06 40.00 83.00 Z"/>
</g>
<g fill="#B9CAD7" fill-opacity="0.93" stroke="None">
<path d="
M 18.00 92.00 
C 19.66 93.89 26.53 94.74 29.00 97.00
C 28.94 96.19 29.12 93.57 29.00 92.00
C 27.60 89.98 21.80 90.20 21.00 87.00
C 18.35 89.22 18.67 89.12 18.00 92.00 Z"/>
</g>
<g fill="#B9CAD7" fill-opacity="0.93" stroke="None">
<path d="
M 66.00 93.00 
C 66.07 94.77 66.62 95.77 67.00 97.00
C 69.45 94.40 76.22 94.03 78.00 92.00
C 77.31 89.06 77.61 89.19 75.00 87.00
C 74.43 90.42 66.92 90.27 66.00 93.00 Z"/>
</g>
<g fill="#D0DCE6" fill-opacity="1.00" stroke="None">
<path d="
M 43.00 91.00 
C 45.34 94.02 46.30 99.98 44.00 104.00
C 46.07 103.72 48.93 103.72 51.00 104.00
C 51.61 97.58 48.46 93.83 54.00 89.00
C 51.83 90.08 44.59 91.43 43.00 91.00 Z"/>
</g>
<g fill="#AF7254" fill-opacity="0.93" stroke="None">
<path d="
M 30.00 99.00 
C 29.85 98.44 29.44 97.40 29.00 97.00
C 26.53 94.74 19.66 93.89 18.00 92.00
C 16.94 96.54 15.68 100.87 14.33 105.33 C 12.98 109.79 15.38 115.84 16.70 119.30 C 18.02 122.76 27.87 123.74 29.74 121.74 C 31.62 119.74 35.36 111.96 31.92 109.08 C 28.48 106.20 29.49 102.57 30.00 99.00 Z"/>
</g>
<g fill="#B07154" fill-opacity="0.93" stroke="None">
<path d="
M 67.00 97.00 
C 67.14 97.46 66.87 98.54 67.00 99.00
C 69.04 106.05 59.73 111.81 65.03 118.97 C 70.33 126.13 79.79 122.18 81.07 114.07 C 82.36 105.96 79.82 99.77 78.00 92.00
C 76.22 94.03 69.45 94.40 67.00 97.00 Z"/>
</g>
<g fill="#A5B3D6" fill-opacity="1.00" stroke="None">
<path d="
M 44.00 105.00 
C 46.26 104.86 48.74 104.83 51.00 105.00
C 51.00 105.00 50.95 104.50 51.00 104.00
C 48.93 103.72 46.07 103.72 44.00 104.00
C 44.00 104.00 44.06 104.99 44.00 105.00 Z"/>
</g>
<g fill="#6668BD" fill-opacity="0.98" stroke="None">
<path d="
M 33.00 106.00 
C 33.01 106.00 33.00 107.00 33.00 107.00
C 33.03 108.95 33.79 110.21 34.00 112.00
C 35.39 114.08 43.43 115.58 46.00 114.00
C 46.23 112.44 46.32 113.07 47.00 112.00
C 48.37 109.84 47.60 109.80 49.00 112.00
C 49.55 112.87 49.81 112.69 50.00 114.00
C 52.48 115.52 60.77 114.19 62.00 112.00
C 62.14 109.94 62.27 108.84 63.00 107.00
C 60.99 107.84 53.56 105.19 51.00 105.00
C 48.74 104.83 46.26 104.86 44.00 105.00
C 40.22 105.24 36.88 105.76 33.00 106.00 Z"/>
</g>
<g fill="#B3785F" fill-opacity="0.62" stroke="None">
<path d="
M 32.00 107.00 
C 32.00 107.00 32.75 107.25 33.00 107.00
C 33.00 107.00 33.01 106.00 33.00 106.00
C 32.66 106.02 31.97 106.98 32.00 107.00 Z"/>
</g>
<g fill="#000000" fill-opacity="0.00" stroke="None">
<path d="
M 47.00 112.00 
C 46.40 113.90 47.00 117.00 47.00 119.00
C 47.00 120.00 47.00 121.00 47.00 122.00
C 47.00 123.00 47.00 124.00 47.00 125.00
C 47.00 126.00 47.00 127.00 47.00 128.00
L 49.00 128.00
C 49.00 127.00 49.00 126.00 49.00 125.00
C 49.00 124.00 49.00 123.00 49.00 122.00
C 49.00 121.00 49.00 120.00 49.00 119.00
C 49.00 117.00 49.60 113.90 49.00 112.00
C 47.60 109.80 48.37 109.84 47.00 112.00 Z"/>
</g>
<g fill="#4B4CA1" fill-opacity="0.93" stroke="None">
<path d="
M 34.00 119.00 
C 37.23 117.43 42.57 120.18 46.00 119.00
C 45.61 117.87 45.83 115.19 46.00 114.00
C 43.43 115.58 35.39 114.08 34.00 112.00
C 34.21 113.82 34.52 117.26 34.00 119.00 Z"/>
</g>
<g fill="#595CAC" fill-opacity="0.49" stroke="None">
<path d="
M 46.00 114.00 
C 45.83 115.19 45.61 117.87 46.00 119.00
C 46.27 118.75 47.00 119.00 47.00 119.00
C 47.00 117.00 46.40 113.90 47.00 112.00
C 46.32 113.07 46.23 112.44 46.00 114.00 Z"/>
</g>
<g fill="#595CAC" fill-opacity="0.49" stroke="None">
<path d="
M 49.00 119.00 
C 49.27 118.75 50.00 119.00 50.00 119.00
C 50.39 117.87 50.17 115.19 50.00 114.00
C 49.81 112.69 49.55 112.87 49.00 112.00
C 49.60 113.90 49.00 117.00 49.00 119.00 Z"/>
</g>
<g fill="#4B4CA1" fill-opacity="0.93" stroke="None">
<path d="
M 50.00 114.00 
C 50.17 115.19 50.39 117.87 50.00 119.00
C 53.43 120.18 58.77 117.43 62.00 119.00
C 61.45 117.18 61.87 113.91 62.00 112.00
C 60.77 114.19 52.48 115.52 50.00 114.00 Z"/>
</g>
<g fill="#DCDCDC" fill-opacity="0.99" stroke="None">
<path d="
M 32.00 122.00 
C 31.40 122.83 30.69 124.37 30.00 125.00
C 35.33 125.00 40.67 125.00 46.00 125.00
C 45.74 124.76 46.00 122.39 46.00 122.00
C 46.00 121.61 45.74 119.24 46.00 119.00
C 42.57 120.18 37.23 117.43 34.00 119.00
C 33.68 120.06 32.65 121.09 32.00 122.00 Z"/>
</g>
<g fill="#E3E5E7" fill-opacity="0.50" stroke="None">
<path d="
M 46.00 122.00 
C 46.27 121.75 47.00 122.00 47.00 122.00
C 47.00 121.00 47.00 120.00 47.00 119.00
C 47.00 119.00 46.27 118.75 46.00 119.00
C 45.74 119.24 46.00 121.61 46.00 122.00 Z"/>
</g>
<g fill="#E3E5E7" fill-opacity="0.50" stroke="None">
<path d="
M 49.00 122.00 
C 49.27 121.75 50.00 122.00 50.00 122.00
C 50.00 121.61 50.26 119.24 50.00 119.00
C 50.00 119.00 49.27 118.75 49.00 119.00
C 49.00 120.00 49.00 121.00 49.00 122.00 Z"/>
</g>
<g fill="#DCDCDC" fill-opacity="0.99" stroke="None">
<path d="
M 50.00 122.00 
C 50.00 122.39 50.26 124.76 50.00 125.00
C 55.33 125.00 60.67 125.00 66.00 125.00
C 65.19 124.27 64.61 122.85 64.00 122.00
C 63.45 121.23 62.29 119.95 62.00 119.00
C 58.77 117.43 53.43 120.18 50.00 119.00
C 50.26 119.24 50.00 121.61 50.00 122.00 Z"/>
</g>
<g fill="#D7D7D7" fill-opacity="0.37" stroke="None">
<path d="
M 29.00 125.00 
C 29.27 124.75 30.00 125.00 30.00 125.00
C 30.69 124.37 31.40 122.83 32.00 122.00
C 31.19 122.87 29.22 123.45 29.00 125.00 Z"/>
</g>
<g fill="#D8D9D8" fill-opacity="0.73" stroke="None">
<path d="
M 46.00 125.00 
C 46.50 125.00 47.00 125.00 47.00 125.00
C 47.00 124.00 47.00 123.00 47.00 122.00
C 47.00 122.00 46.27 121.75 46.00 122.00
C 46.00 122.39 45.74 124.76 46.00 125.00 Z"/>
</g>
<g fill="#D8D9D8" fill-opacity="0.73" stroke="None">
<path d="
M 49.00 125.00 
C 49.27 124.75 50.00 125.00 50.00 125.00
C 50.26 124.76 50.00 122.39 50.00 122.00
C 50.00 122.00 49.27 121.75 49.00 122.00
C 49.00 123.00 49.00 124.00 49.00 125.00 Z"/>
</g>
<g fill="#D7D7D7" fill-opacity="0.37" stroke="None">
<path d="
M 66.00 125.00 
C 66.50 125.00 67.00 125.00 67.00 125.00
C 66.78 123.41 64.91 122.98 64.00 122.00
C 64.61 122.85 65.19 124.27 66.00 125.00 Z"/>
</g>
<g fill="#C78B59" fill-opacity="0.99" stroke="None">
<path d="
M 29.00 128.00 
L 47.00 128.00
C 47.00 127.00 47.00 126.00 47.00 125.00
C 47.00 125.00 46.50 125.00 46.00 125.00
C 40.67 125.00 35.33 125.00 30.00 125.00
C 30.00 125.00 29.27 124.75 29.00 125.00
C 28.50 125.47 29.40 127.42 29.00 128.00 Z"/>
</g>
<g fill="#C78B59" fill-opacity="0.99" stroke="None">
<path d="
M 49.00 128.00 
L 67.00 128.00
C 66.60 127.42 67.50 125.47 67.00 125.00
C 67.00 125.00 66.50 125.00 66.00 125.00
C 60.67 125.00 55.33 125.00 50.00 125.00
C 50.00 125.00 49.27 124.75 49.00 125.00
C 49.00 126.00 49.00 127.00 49.00 128.00 Z"/>
</g>
</svg>