<svg xmlns="http://www.w3.org/2000/svg" xmlns:v="https://svgstorm.com"
viewBox = "0 0 96 128"
width="96"
height="128">
<g fill="None" fill-opacity="0.0" stroke="#000000" stroke-opacity="0.00" stroke-width="0.3"><path d="
M 0.00 128.00 
L 96.00 128.00
L 96.00 0.00
L 0.00 0.00
L 0.00 128.00
M 74.00 29.00 
C 75.71 31.65 79.94 36.87 73.00 39.00
C 74.21 40.40 73.98 42.26 74.00 44.00
C 74.06 44.94 73.80 46.08 74.00 47.00
C 74.58 49.62 76.52 54.64 72.00 56.00
C 73.67 60.12 74.50 64.43 71.00 68.00
C 72.17 70.60 73.37 75.59 75.00 78.00
C 75.50 78.73 77.35 80.34 78.00 81.00
C 81.17 84.23 83.56 86.18 84.00 91.00
C 84.12 92.27 84.41 94.80 84.00 96.00
C 86.51 97.84 88.32 101.78 88.00 105.00
C 81.53 104.59 75.29 103.23 69.00 102.00
C 69.97 100.09 70.59 98.10 71.00 96.00
C 70.29 96.43 67.85 96.00 67.00 96.00
C 66.50 96.00 66.00 96.00 66.00 96.00
C 63.29 97.32 61.40 99.90 62.00 103.00
C 64.19 105.19 66.56 107.94 67.00 111.00
C 60.44 115.93 45.28 125.83 52.00 110.00
C 51.76 108.22 49.30 106.36 49.02 103.98 C 48.75 101.59 50.52 97.91 50.00 96.00
C 48.67 95.14 47.32 92.78 46.00 92.00
C 42.94 90.18 38.91 88.86 36.00 87.00
C 33.09 85.14 31.31 84.12 31.00 80.00
C 30.08 80.00 28.90 80.18 28.00 80.00
C 21.80 78.79 20.31 70.34 24.00 66.00
C 22.27 64.11 20.51 61.25 18.00 60.00
C 21.99 56.47 15.08 50.90 20.00 48.00
C 23.51 37.01 28.98 31.00 42.00 32.00
C 47.25 32.40 49.11 35.94 54.00 35.00
C 54.62 40.48 59.10 44.70 65.00 43.00
C 64.87 42.84 63.78 41.20 64.00 41.00
C 60.89 40.39 58.17 37.47 59.00 34.00
C 62.31 32.97 63.53 35.28 66.00 36.00
C 65.30 34.07 66.36 32.29 67.00 31.00
C 67.09 30.81 67.61 27.61 69.00 29.00
C 66.39 28.81 63.09 28.61 60.00 28.00
C 60.76 20.59 74.61 21.21 74.00 29.00 Z"/>
</g>
<g fill="None" fill-opacity="0.0" stroke="#B1C5D5" stroke-opacity="0.83" stroke-width="0.3"><path d="
M 69.00 29.00 
C 70.59 29.12 72.45 28.65 74.00 29.00
C 74.61 21.21 60.76 20.59 60.00 28.00
C 63.09 28.61 66.39 28.81 69.00 29.00 Z"/>
</g>
<g fill="None" fill-opacity="0.0" stroke="#659BC3" stroke-opacity="0.50" stroke-width="0.3"><path d="
M 67.00 31.00 
C 67.01 30.99 69.17 28.92 69.00 29.00
C 67.61 27.61 67.09 30.81 67.00 31.00 Z"/>
</g>
<g fill="None" fill-opacity="0.0" stroke="#508AB7" stroke-opacity="0.96" stroke-width="0.3"><path d="
M 67.00 31.00 
C 66.36 32.29 65.30 34.07 66.00 36.00
C 67.68 36.85 70.74 38.05 71.00 40.00
C 69.01 40.28 67.22 41.48 65.00 41.00
C 66.60 43.04 65.51 42.89 65.00 43.00
C 59.10 44.70 54.62 40.48 54.00 35.00
C 49.11 35.94 47.25 32.40 42.00 32.00
C 41.05 35.39 43.15 37.65 45.00 40.00
C 43.34 40.54 42.67 42.56 41.00 43.00
C 37.49 45.61 33.43 47.69 30.00 50.00
C 28.53 50.99 27.43 53.50 25.00 53.00
C 24.78 50.49 23.17 47.20 20.00 48.00
C 15.08 50.90 21.99 56.47 18.00 60.00
C 20.51 61.25 22.27 64.11 24.00 66.00
C 20.31 70.34 21.80 78.79 28.00 80.00
C 28.91 80.11 30.84 77.59 32.00 80.00
C 32.90 79.78 34.76 78.94 35.00 78.00
C 31.46 75.84 23.97 77.70 26.00 70.00
C 28.34 69.80 29.38 72.93 32.00 72.00
C 35.72 72.72 38.56 72.16 42.00 74.00
C 48.20 77.31 48.07 75.69 54.00 72.00
C 54.36 71.78 55.00 72.00 55.00 72.00
C 57.22 68.60 60.12 68.81 60.00 65.00
C 59.85 60.35 57.11 53.87 61.00 50.00
C 62.90 51.79 63.64 54.70 65.00 57.00
C 68.45 57.39 67.99 51.59 72.00 53.00
C 74.09 47.90 67.13 49.16 68.00 45.00
C 69.83 44.77 71.47 45.07 73.00 46.00
C 72.64 44.44 73.85 44.83 74.00 44.00
C 73.98 42.26 74.21 40.40 73.00 39.00
C 79.94 36.87 75.71 31.65 74.00 29.00
C 72.45 28.65 70.59 29.12 69.00 29.00
C 69.17 28.92 67.01 30.99 67.00 31.00
M 46.00 52.00 
C 52.00 54.25 47.66 65.87 41.33 62.67 C 34.99 59.47 38.36 49.14 46.00 52.00
M 46.00 71.00 
C 47.27 68.40 49.14 64.61 54.00 64.00
C 59.86 63.26 55.47 68.71 52.25 71.25 C 49.04 73.80 41.05 73.83 46.00 71.00 Z"/>
</g>
<g fill="None" fill-opacity="0.0" stroke="#BCD0E1" stroke-opacity="0.93" stroke-width="0.3"><path d="
M 20.00 48.00 
C 23.17 47.20 24.78 50.49 25.00 53.00
C 27.43 53.50 28.53 50.99 30.00 50.00
C 25.23 50.22 29.51 43.97 31.75 41.75 C 33.99 39.54 43.20 38.47 41.00 43.00
C 42.67 42.56 43.34 40.54 45.00 40.00
C 43.15 37.65 41.05 35.39 42.00 32.00
C 28.98 31.00 23.51 37.01 20.00 48.00 Z"/>
</g>
<g fill="None" fill-opacity="0.0" stroke="#B9CDDC" stroke-opacity="0.89" stroke-width="0.3"><path d="
M 64.00 41.00 
C 64.48 41.09 65.00 41.00 65.00 41.00
C 67.22 41.48 69.01 40.28 71.00 40.00
C 70.74 38.05 67.68 36.85 66.00 36.00
C 63.53 35.28 62.31 32.97 59.00 34.00
C 58.17 37.47 60.89 40.39 64.00 41.00 Z"/>
</g>
<g fill="None" fill-opacity="0.0" stroke="#FAFBFC" stroke-opacity="1.00" stroke-width="0.3"><path d="
M 30.00 50.00 
C 33.43 47.69 37.49 45.61 41.00 43.00
C 43.20 38.47 33.99 39.54 31.75 41.75 C 29.51 43.97 25.23 50.22 30.00 50.00 Z"/>
</g>
<g fill="None" fill-opacity="0.0" stroke="#497295" stroke-opacity="0.54" stroke-width="0.3"><path d="
M 65.00 43.00 
C 65.51 42.89 66.60 43.04 65.00 41.00
C 65.00 41.00 64.48 41.09 64.00 41.00
C 63.78 41.20 64.87 42.84 65.00 43.00 Z"/>
</g>
<g fill="None" fill-opacity="0.0" stroke="#4E799B" stroke-opacity="0.73" stroke-width="0.3"><path d="
M 73.00 46.00 
C 73.26 46.22 73.76 46.74 74.00 47.00
C 73.80 46.08 74.06 44.94 74.00 44.00
C 73.85 44.83 72.64 44.44 73.00 46.00 Z"/>
</g>
<g fill="None" fill-opacity="0.0" stroke="#365166" stroke-opacity="0.95" stroke-width="0.3"><path d="
M 60.00 65.00 
C 63.47 68.55 65.37 62.67 67.00 61.00
C 70.27 62.03 69.07 66.31 71.00 68.00
C 74.50 64.43 73.67 60.12 72.00 56.00
C 76.52 54.64 74.58 49.62 74.00 47.00
C 73.76 46.74 73.26 46.22 73.00 46.00
C 71.47 45.07 69.83 44.77 68.00 45.00
C 67.13 49.16 74.09 47.90 72.00 53.00
C 67.99 51.59 68.45 57.39 65.00 57.00
C 63.64 54.70 62.90 51.79 61.00 50.00
C 57.11 53.87 59.85 60.35 60.00 65.00 Z"/>
</g>
<g fill="None" fill-opacity="0.0" stroke="#EBC42A" stroke-opacity="1.00" stroke-width="0.3"><path d="
M 46.00 52.00 
C 38.36 49.14 34.99 59.47 41.33 62.67 C 47.66 65.87 52.00 54.25 46.00 52.00
M 46.00 55.00 
C 46.49 63.46 37.46 53.70 46.00 55.00 Z"/>
</g>
<g fill="None" fill-opacity="0.0" stroke="#FEFAEA" stroke-opacity="1.00" stroke-width="0.3"><path d="
M 46.00 55.00 
C 37.46 53.70 46.49 63.46 46.00 55.00 Z"/>
</g>
<g fill="None" fill-opacity="0.0" stroke="#437296" stroke-opacity="0.96" stroke-width="0.3"><path d="
M 60.00 65.00 
C 60.12 68.81 57.22 68.60 55.00 72.00
C 56.65 72.00 71.64 73.13 66.00 78.00
C 67.36 77.57 69.36 76.71 70.67 77.33 C 71.99 77.96 72.73 80.42 74.00 80.00
C 73.91 80.26 75.17 77.12 75.00 78.00
C 73.37 75.59 72.17 70.60 71.00 68.00
C 69.07 66.31 70.27 62.03 67.00 61.00
C 65.37 62.67 63.47 68.55 60.00 65.00 Z"/>
</g>
<g fill="None" fill-opacity="0.0" stroke="#375368" stroke-opacity="1.00" stroke-width="0.3"><path d="
M 54.00 64.00 
C 53.36 64.40 53.14 67.46 51.30 68.30 C 49.46 69.14 47.64 70.06 46.00 71.00
C 41.05 73.83 49.04 73.80 52.25 71.25 C 55.47 68.71 59.86 63.26 54.00 64.00 Z"/>
</g>
<g fill="None" fill-opacity="0.0" stroke="#B4CADD" stroke-opacity="1.00" stroke-width="0.3"><path d="
M 46.00 71.00 
C 47.64 70.06 49.46 69.14 51.30 68.30 C 53.14 67.46 53.36 64.40 54.00 64.00
C 49.14 64.61 47.27 68.40 46.00 71.00 Z"/>
</g>
<g fill="None" fill-opacity="0.0" stroke="#3E6D91" stroke-opacity="1.00" stroke-width="0.3"><path d="
M 35.00 78.00 
C 34.82 78.72 30.86 70.96 32.00 72.00
C 29.38 72.93 28.34 69.80 26.00 70.00
C 23.97 77.70 31.46 75.84 35.00 78.00 Z"/>
</g>
<g fill="None" fill-opacity="0.0" stroke="#324C60" stroke-opacity="0.95" stroke-width="0.3"><path d="
M 35.00 78.00 
C 34.76 78.94 32.90 79.78 32.00 80.00
C 31.53 80.12 31.00 80.00 31.00 80.00
C 31.31 84.12 33.09 85.14 36.00 87.00
C 31.82 81.82 39.68 77.21 45.00 79.00
C 45.45 76.69 42.47 75.93 42.00 74.00
C 38.56 72.16 35.72 72.72 32.00 72.00
C 30.86 70.96 34.82 78.72 35.00 78.00 Z"/>
</g>
<g fill="None" fill-opacity="0.0" stroke="#3F6B8F" stroke-opacity="0.96" stroke-width="0.3"><path d="
M 42.00 74.00 
C 42.47 75.93 45.45 76.69 45.00 79.00
C 39.68 77.21 31.82 81.82 36.00 87.00
C 38.91 88.86 42.94 90.18 46.00 92.00
C 44.12 88.24 45.78 84.12 50.00 83.00
C 49.06 78.58 51.26 75.05 54.00 72.00
C 48.07 75.69 48.20 77.31 42.00 74.00 Z"/>
</g>
<g fill="None" fill-opacity="0.0" stroke="#31495D" stroke-opacity="0.99" stroke-width="0.3"><path d="
M 46.00 92.00 
C 47.32 92.78 48.67 95.14 50.00 96.00
C 53.89 98.50 55.38 96.58 59.00 94.00
C 53.77 93.65 56.51 89.25 56.00 85.00
C 55.59 82.43 52.63 82.02 55.31 78.31 C 57.98 74.59 61.98 78.89 63.00 79.00
C 63.99 78.17 64.87 78.36 66.00 78.00
C 71.64 73.13 56.65 72.00 55.00 72.00
C 55.00 72.00 54.36 71.78 54.00 72.00
C 51.26 75.05 49.06 78.58 50.00 83.00
C 45.78 84.12 44.12 88.24 46.00 92.00
M 53.00 87.00 
C 55.93 88.66 52.50 93.93 49.33 91.67 C 46.15 89.40 49.98 85.29 53.00 87.00 Z"/>
</g>
<g fill="None" fill-opacity="0.0" stroke="#E4608E" stroke-opacity="1.00" stroke-width="0.3"><path d="
M 56.00 85.00 
C 58.36 85.79 59.48 83.44 61.00 83.00
C 61.96 81.97 61.96 79.88 63.00 79.00
C 61.98 78.89 57.98 74.59 55.31 78.31 C 52.63 82.02 55.59 82.43 56.00 85.00 Z"/>
</g>
<g fill="None" fill-opacity="0.0" stroke="#B3C9DC" stroke-opacity="1.00" stroke-width="0.3"><path d="
M 66.00 78.00 
C 64.87 78.36 63.99 78.17 63.00 79.00
C 61.96 79.88 61.96 81.97 61.00 83.00
C 62.39 82.60 65.64 82.08 67.00 82.00
C 70.79 81.78 72.36 84.51 74.00 80.00
C 72.73 80.42 71.99 77.96 70.67 77.33 C 69.36 76.71 67.36 77.57 66.00 78.00 Z"/>
</g>
<g fill="None" fill-opacity="0.0" stroke="#3A576E" stroke-opacity="0.93" stroke-width="0.3"><path d="
M 74.00 80.00 
C 72.36 84.51 70.79 81.78 67.00 82.00
C 66.95 83.76 68.53 85.07 68.00 87.00
C 71.95 86.43 74.76 83.09 78.00 81.00
C 77.35 80.34 75.50 78.73 75.00 78.00
C 75.17 77.12 73.91 80.26 74.00 80.00 Z"/>
</g>
<g fill="None" fill-opacity="0.0" stroke="#5484AA" stroke-opacity="0.75" stroke-width="0.3"><path d="
M 28.00 80.00 
C 28.90 80.18 30.08 80.00 31.00 80.00
C 31.00 80.00 31.53 80.12 32.00 80.00
C 30.84 77.59 28.91 80.11 28.00 80.00 Z"/>
</g>
<g fill="None" fill-opacity="0.0" stroke="#4C81AB" stroke-opacity="0.95" stroke-width="0.3"><path d="
M 67.00 82.00 
C 65.64 82.08 62.39 82.60 61.00 83.00
C 59.48 83.44 58.36 85.79 56.00 85.00
C 56.51 89.25 53.77 93.65 59.00 94.00
C 55.38 96.58 53.89 98.50 50.00 96.00
C 50.52 97.91 48.75 101.59 49.02 103.98 C 49.30 106.36 51.76 108.22 52.00 110.00
C 54.33 106.50 57.40 106.39 54.00 101.00
C 56.53 103.29 58.58 104.96 59.00 100.00
C 60.88 100.24 60.46 102.55 62.00 103.00
C 61.40 99.90 63.29 97.32 66.00 96.00
C 65.21 95.38 64.55 93.80 64.00 93.00
C 68.72 92.92 71.80 86.28 76.00 89.00
C 78.88 89.57 80.22 90.89 78.00 95.00
C 79.94 94.38 81.13 96.20 83.00 96.00
C 82.37 94.05 83.96 92.09 84.00 91.00
C 83.56 86.18 81.17 84.23 78.00 81.00
C 74.76 83.09 71.95 86.43 68.00 87.00
C 68.53 85.07 66.95 83.76 67.00 82.00 Z"/>
</g>
<g fill="None" fill-opacity="0.0" stroke="#3F6E92" stroke-opacity="1.00" stroke-width="0.3"><path d="
M 53.00 87.00 
C 49.98 85.29 46.15 89.40 49.33 91.67 C 52.50 93.93 55.93 88.66 53.00 87.00 Z"/>
</g>
<g fill="None" fill-opacity="0.0" stroke="#A5BBCD" stroke-opacity="0.98" stroke-width="0.3"><path d="
M 66.00 96.00 
C 66.00 96.00 66.50 96.00 67.00 96.00
C 67.77 95.21 69.67 94.40 71.00 95.00
C 74.72 93.80 73.92 90.37 76.00 89.00
C 71.80 86.28 68.72 92.92 64.00 93.00
C 64.55 93.80 65.21 95.38 66.00 96.00 Z"/>
</g>
<g fill="None" fill-opacity="0.0" stroke="#344B5D" stroke-opacity="0.91" stroke-width="0.3"><path d="
M 76.00 89.00 
C 73.92 90.37 74.72 93.80 71.00 95.00
C 70.85 95.05 71.00 96.00 71.00 96.00
C 70.59 98.10 69.97 100.09 69.00 102.00
C 75.29 103.23 81.53 104.59 88.00 105.00
C 88.32 101.78 86.51 97.84 84.00 96.00
C 83.67 95.76 83.00 96.00 83.00 96.00
C 81.13 96.20 79.94 94.38 78.00 95.00
C 80.22 90.89 78.88 89.57 76.00 89.00 Z"/>
</g>
<g fill="None" fill-opacity="0.0" stroke="#4D7A9C" stroke-opacity="0.75" stroke-width="0.3"><path d="
M 83.00 96.00 
C 83.00 96.00 83.67 95.76 84.00 96.00
C 84.41 94.80 84.12 92.27 84.00 91.00
C 83.96 92.09 82.37 94.05 83.00 96.00 Z"/>
</g>
<g fill="None" fill-opacity="0.0" stroke="#B2C6D7" stroke-opacity="0.25" stroke-width="0.3"><path d="
M 67.00 96.00 
C 67.85 96.00 70.29 96.43 71.00 96.00
C 71.00 96.00 70.85 95.05 71.00 95.00
C 69.67 94.40 67.77 95.21 67.00 96.00 Z"/>
</g>
<g fill="None" fill-opacity="0.0" stroke="#344B5D" stroke-opacity="0.89" stroke-width="0.3"><path d="
M 52.00 110.00 
C 45.28 125.83 60.44 115.93 67.00 111.00
C 66.56 107.94 64.19 105.19 62.00 103.00
C 60.46 102.55 60.88 100.24 59.00 100.00
C 58.58 104.96 56.53 103.29 54.00 101.00
C 57.40 106.39 54.33 106.50 52.00 110.00 Z"/>
</g>
<g fill="#000000" fill-opacity="0.00" stroke="None">
<path d="
M 0.00 128.00 
L 96.00 128.00
L 96.00 0.00
L 0.00 0.00
L 0.00 128.00
M 74.00 29.00 
C 75.71 31.65 79.94 36.87 73.00 39.00
C 74.21 40.40 73.98 42.26 74.00 44.00
C 74.06 44.94 73.80 46.08 74.00 47.00
C 74.58 49.62 76.52 54.64 72.00 56.00
C 73.67 60.12 74.50 64.43 71.00 68.00
C 72.17 70.60 73.37 75.59 75.00 78.00
C 75.50 78.73 77.35 80.34 78.00 81.00
C 81.17 84.23 83.56 86.18 84.00 91.00
C 84.12 92.27 84.41 94.80 84.00 96.00
C 86.51 97.84 88.32 101.78 88.00 105.00
C 81.53 104.59 75.29 103.23 69.00 102.00
C 69.97 100.09 70.59 98.10 71.00 96.00
C 70.29 96.43 67.85 96.00 67.00 96.00
C 66.50 96.00 66.00 96.00 66.00 96.00
C 63.29 97.32 61.40 99.90 62.00 103.00
C 64.19 105.19 66.56 107.94 67.00 111.00
C 60.44 115.93 45.28 125.83 52.00 110.00
C 51.76 108.22 49.30 106.36 49.02 103.98 C 48.75 101.59 50.52 97.91 50.00 96.00
C 48.67 95.14 47.32 92.78 46.00 92.00
C 42.94 90.18 38.91 88.86 36.00 87.00
C 33.09 85.14 31.31 84.12 31.00 80.00
C 30.08 80.00 28.90 80.18 28.00 80.00
C 21.80 78.79 20.31 70.34 24.00 66.00
C 22.27 64.11 20.51 61.25 18.00 60.00
C 21.99 56.47 15.08 50.90 20.00 48.00
C 23.51 37.01 28.98 31.00 42.00 32.00
C 47.25 32.40 49.11 35.94 54.00 35.00
C 54.62 40.48 59.10 44.70 65.00 43.00
C 64.87 42.84 63.78 41.20 64.00 41.00
C 60.89 40.39 58.17 37.47 59.00 34.00
C 62.31 32.97 63.53 35.28 66.00 36.00
C 65.30 34.07 66.36 32.29 67.00 31.00
C 67.09 30.81 67.61 27.61 69.00 29.00
C 66.39 28.81 63.09 28.61 60.00 28.00
C 60.76 20.59 74.61 21.21 74.00 29.00 Z"/>
</g>
<g fill="#B1C5D5" fill-opacity="0.83" stroke="None">
<path d="
M 69.00 29.00 
C 70.59 29.12 72.45 28.65 74.00 29.00
C 74.61 21.21 60.76 20.59 60.00 28.00
C 63.09 28.61 66.39 28.81 69.00 29.00 Z"/>
</g>
<g fill="#659BC3" fill-opacity="0.50" stroke="None">
<path d="
M 67.00 31.00 
C 67.01 30.99 69.17 28.92 69.00 29.00
C 67.61 27.61 67.09 30.81 67.00 31.00 Z"/>
</g>
<g fill="#508AB7" fill-opacity="0.96" stroke="None">
<path d="
M 67.00 31.00 
C 66.36 32.29 65.30 34.07 66.00 36.00
C 67.68 36.85 70.74 38.05 71.00 40.00
C 69.01 40.28 67.22 41.48 65.00 41.00
C 66.60 43.04 65.51 42.89 65.00 43.00
C 59.10 44.70 54.62 40.48 54.00 35.00
C 49.11 35.94 47.25 32.40 42.00 32.00
C 41.05 35.39 43.15 37.65 45.00 40.00
C 43.34 40.54 42.67 42.56 41.00 43.00
C 37.49 45.61 33.43 47.69 30.00 50.00
C 28.53 50.99 27.43 53.50 25.00 53.00
C 24.78 50.49 23.17 47.20 20.00 48.00
C 15.08 50.90 21.99 56.47 18.00 60.00
C 20.51 61.25 22.27 64.11 24.00 66.00
C 20.31 70.34 21.80 78.79 28.00 80.00
C 28.91 80.11 30.84 77.59 32.00 80.00
C 32.90 79.78 34.76 78.94 35.00 78.00
C 31.46 75.84 23.97 77.70 26.00 70.00
C 28.34 69.80 29.38 72.93 32.00 72.00
C 35.72 72.72 38.56 72.16 42.00 74.00
C 48.20 77.31 48.07 75.69 54.00 72.00
C 54.36 71.78 55.00 72.00 55.00 72.00
C 57.22 68.60 60.12 68.81 60.00 65.00
C 59.85 60.35 57.11 53.87 61.00 50.00
C 62.90 51.79 63.64 54.70 65.00 57.00
C 68.45 57.39 67.99 51.59 72.00 53.00
C 74.09 47.90 67.13 49.16 68.00 45.00
C 69.83 44.77 71.47 45.07 73.00 46.00
C 72.64 44.44 73.85 44.83 74.00 44.00
C 73.98 42.26 74.21 40.40 73.00 39.00
C 79.94 36.87 75.71 31.65 74.00 29.00
C 72.45 28.65 70.59 29.12 69.00 29.00
C 69.17 28.92 67.01 30.99 67.00 31.00
M 46.00 52.00 
C 52.00 54.25 47.66 65.87 41.33 62.67 C 34.99 59.47 38.36 49.14 46.00 52.00
M 46.00 71.00 
C 47.27 68.40 49.14 64.61 54.00 64.00
C 59.86 63.26 55.47 68.71 52.25 71.25 C 49.04 73.80 41.05 73.83 46.00 71.00 Z"/>
</g>
<g fill="#BCD0E1" fill-opacity="0.93" stroke="None">
<path d="
M 20.00 48.00 
C 23.17 47.20 24.78 50.49 25.00 53.00
C 27.43 53.50 28.53 50.99 30.00 50.00
C 25.23 50.22 29.51 43.97 31.75 41.75 C 33.99 39.54 43.20 38.47 41.00 43.00
C 42.67 42.56 43.34 40.54 45.00 40.00
C 43.15 37.65 41.05 35.39 42.00 32.00
C 28.98 31.00 23.51 37.01 20.00 48.00 Z"/>
</g>
<g fill="#B9CDDC" fill-opacity="0.89" stroke="None">
<path d="
M 64.00 41.00 
C 64.48 41.09 65.00 41.00 65.00 41.00
C 67.22 41.48 69.01 40.28 71.00 40.00
C 70.74 38.05 67.68 36.85 66.00 36.00
C 63.53 35.28 62.31 32.97 59.00 34.00
C 58.17 37.47 60.89 40.39 64.00 41.00 Z"/>
</g>
<g fill="#FAFBFC" fill-opacity="1.00" stroke="None">
<path d="
M 30.00 50.00 
C 33.43 47.69 37.49 45.61 41.00 43.00
C 43.20 38.47 33.99 39.54 31.75 41.75 C 29.51 43.97 25.23 50.22 30.00 50.00 Z"/>
</g>
<g fill="#497295" fill-opacity="0.54" stroke="None">
<path d="
M 65.00 43.00 
C 65.51 42.89 66.60 43.04 65.00 41.00
C 65.00 41.00 64.48 41.09 64.00 41.00
C 63.78 41.20 64.87 42.84 65.00 43.00 Z"/>
</g>
<g fill="#4E799B" fill-opacity="0.73" stroke="None">
<path d="
M 73.00 46.00 
C 73.26 46.22 73.76 46.74 74.00 47.00
C 73.80 46.08 74.06 44.94 74.00 44.00
C 73.85 44.83 72.64 44.44 73.00 46.00 Z"/>
</g>
<g fill="#365166" fill-opacity="0.95" stroke="None">
<path d="
M 60.00 65.00 
C 63.47 68.55 65.37 62.67 67.00 61.00
C 70.27 62.03 69.07 66.31 71.00 68.00
C 74.50 64.43 73.67 60.12 72.00 56.00
C 76.52 54.64 74.58 49.62 74.00 47.00
C 73.76 46.74 73.26 46.22 73.00 46.00
C 71.47 45.07 69.83 44.77 68.00 45.00
C 67.13 49.16 74.09 47.90 72.00 53.00
C 67.99 51.59 68.45 57.39 65.00 57.00
C 63.64 54.70 62.90 51.79 61.00 50.00
C 57.11 53.87 59.85 60.35 60.00 65.00 Z"/>
</g>
<g fill="#EBC42A" fill-opacity="1.00" stroke="None">
<path d="
M 46.00 52.00 
C 38.36 49.14 34.99 59.47 41.33 62.67 C 47.66 65.87 52.00 54.25 46.00 52.00
M 46.00 55.00 
C 46.49 63.46 37.46 53.70 46.00 55.00 Z"/>
</g>
<g fill="#FEFAEA" fill-opacity="1.00" stroke="None">
<path d="
M 46.00 55.00 
C 37.46 53.70 46.49 63.46 46.00 55.00 Z"/>
</g>
<g fill="#437296" fill-opacity="0.96" stroke="None">
<path d="
M 60.00 65.00 
C 60.12 68.81 57.22 68.60 55.00 72.00
C 56.65 72.00 71.64 73.13 66.00 78.00
C 67.36 77.57 69.36 76.71 70.67 77.33 C 71.99 77.96 72.73 80.42 74.00 80.00
C 73.91 80.26 75.17 77.12 75.00 78.00
C 73.37 75.59 72.17 70.60 71.00 68.00
C 69.07 66.31 70.27 62.03 67.00 61.00
C 65.37 62.67 63.47 68.55 60.00 65.00 Z"/>
</g>
<g fill="#375368" fill-opacity="1.00" stroke="None">
<path d="
M 54.00 64.00 
C 53.36 64.40 53.14 67.46 51.30 68.30 C 49.46 69.14 47.64 70.06 46.00 71.00
C 41.05 73.83 49.04 73.80 52.25 71.25 C 55.47 68.71 59.86 63.26 54.00 64.00 Z"/>
</g>
<g fill="#B4CADD" fill-opacity="1.00" stroke="None">
<path d="
M 46.00 71.00 
C 47.64 70.06 49.46 69.14 51.30 68.30 C 53.14 67.46 53.36 64.40 54.00 64.00
C 49.14 64.61 47.27 68.40 46.00 71.00 Z"/>
</g>
<g fill="#3E6D91" fill-opacity="1.00" stroke="None">
<path d="
M 35.00 78.00 
C 34.82 78.72 30.86 70.96 32.00 72.00
C 29.38 72.93 28.34 69.80 26.00 70.00
C 23.97 77.70 31.46 75.84 35.00 78.00 Z"/>
</g>
<g fill="#324C60" fill-opacity="0.95" stroke="None">
<path d="
M 35.00 78.00 
C 34.76 78.94 32.90 79.78 32.00 80.00
C 31.53 80.12 31.00 80.00 31.00 80.00
C 31.31 84.12 33.09 85.14 36.00 87.00
C 31.82 81.82 39.68 77.21 45.00 79.00
C 45.45 76.69 42.47 75.93 42.00 74.00
C 38.56 72.16 35.72 72.72 32.00 72.00
C 30.86 70.96 34.82 78.72 35.00 78.00 Z"/>
</g>
<g fill="#3F6B8F" fill-opacity="0.96" stroke="None">
<path d="
M 42.00 74.00 
C 42.47 75.93 45.45 76.69 45.00 79.00
C 39.68 77.21 31.82 81.82 36.00 87.00
C 38.91 88.86 42.94 90.18 46.00 92.00
C 44.12 88.24 45.78 84.12 50.00 83.00
C 49.06 78.58 51.26 75.05 54.00 72.00
C 48.07 75.69 48.20 77.31 42.00 74.00 Z"/>
</g>
<g fill="#31495D" fill-opacity="0.99" stroke="None">
<path d="
M 46.00 92.00 
C 47.32 92.78 48.67 95.14 50.00 96.00
C 53.89 98.50 55.38 96.58 59.00 94.00
C 53.77 93.65 56.51 89.25 56.00 85.00
C 55.59 82.43 52.63 82.02 55.31 78.31 C 57.98 74.59 61.98 78.89 63.00 79.00
C 63.99 78.17 64.87 78.36 66.00 78.00
C 71.64 73.13 56.65 72.00 55.00 72.00
C 55.00 72.00 54.36 71.78 54.00 72.00
C 51.26 75.05 49.06 78.58 50.00 83.00
C 45.78 84.12 44.12 88.24 46.00 92.00
M 53.00 87.00 
C 55.93 88.66 52.50 93.93 49.33 91.67 C 46.15 89.40 49.98 85.29 53.00 87.00 Z"/>
</g>
<g fill="#E4608E" fill-opacity="1.00" stroke="None">
<path d="
M 56.00 85.00 
C 58.36 85.79 59.48 83.44 61.00 83.00
C 61.96 81.97 61.96 79.88 63.00 79.00
C 61.98 78.89 57.98 74.59 55.31 78.31 C 52.63 82.02 55.59 82.43 56.00 85.00 Z"/>
</g>
<g fill="#B3C9DC" fill-opacity="1.00" stroke="None">
<path d="
M 66.00 78.00 
C 64.87 78.36 63.99 78.17 63.00 79.00
C 61.96 79.88 61.96 81.97 61.00 83.00
C 62.39 82.60 65.64 82.08 67.00 82.00
C 70.79 81.78 72.36 84.51 74.00 80.00
C 72.73 80.42 71.99 77.96 70.67 77.33 C 69.36 76.71 67.36 77.57 66.00 78.00 Z"/>
</g>
<g fill="#3A576E" fill-opacity="0.93" stroke="None">
<path d="
M 74.00 80.00 
C 72.36 84.51 70.79 81.78 67.00 82.00
C 66.95 83.76 68.53 85.07 68.00 87.00
C 71.95 86.43 74.76 83.09 78.00 81.00
C 77.35 80.34 75.50 78.73 75.00 78.00
C 75.17 77.12 73.91 80.26 74.00 80.00 Z"/>
</g>
<g fill="#5484AA" fill-opacity="0.75" stroke="None">
<path d="
M 28.00 80.00 
C 28.90 80.18 30.08 80.00 31.00 80.00
C 31.00 80.00 31.53 80.12 32.00 80.00
C 30.84 77.59 28.91 80.11 28.00 80.00 Z"/>
</g>
<g fill="#4C81AB" fill-opacity="0.95" stroke="None">
<path d="
M 67.00 82.00 
C 65.64 82.08 62.39 82.60 61.00 83.00
C 59.48 83.44 58.36 85.79 56.00 85.00
C 56.51 89.25 53.77 93.65 59.00 94.00
C 55.38 96.58 53.89 98.50 50.00 96.00
C 50.52 97.91 48.75 101.59 49.02 103.98 C 49.30 106.36 51.76 108.22 52.00 110.00
C 54.33 106.50 57.40 106.39 54.00 101.00
C 56.53 103.29 58.58 104.96 59.00 100.00
C 60.88 100.24 60.46 102.55 62.00 103.00
C 61.40 99.90 63.29 97.32 66.00 96.00
C 65.21 95.38 64.55 93.80 64.00 93.00
C 68.72 92.92 71.80 86.28 76.00 89.00
C 78.88 89.57 80.22 90.89 78.00 95.00
C 79.94 94.38 81.13 96.20 83.00 96.00
C 82.37 94.05 83.96 92.09 84.00 91.00
C 83.56 86.18 81.17 84.23 78.00 81.00
C 74.76 83.09 71.95 86.43 68.00 87.00
C 68.53 85.07 66.95 83.76 67.00 82.00 Z"/>
</g>
<g fill="#3F6E92" fill-opacity="1.00" stroke="None">
<path d="
M 53.00 87.00 
C 49.98 85.29 46.15 89.40 49.33 91.67 C 52.50 93.93 55.93 88.66 53.00 87.00 Z"/>
</g>
<g fill="#A5BBCD" fill-opacity="0.98" stroke="None">
<path d="
M 66.00 96.00 
C 66.00 96.00 66.50 96.00 67.00 96.00
C 67.77 95.21 69.67 94.40 71.00 95.00
C 74.72 93.80 73.92 90.37 76.00 89.00
C 71.80 86.28 68.72 92.92 64.00 93.00
C 64.55 93.80 65.21 95.38 66.00 96.00 Z"/>
</g>
<g fill="#344B5D" fill-opacity="0.91" stroke="None">
<path d="
M 76.00 89.00 
C 73.92 90.37 74.72 93.80 71.00 95.00
C 70.85 95.05 71.00 96.00 71.00 96.00
C 70.59 98.10 69.97 100.09 69.00 102.00
C 75.29 103.23 81.53 104.59 88.00 105.00
C 88.32 101.78 86.51 97.84 84.00 96.00
C 83.67 95.76 83.00 96.00 83.00 96.00
C 81.13 96.20 79.94 94.38 78.00 95.00
C 80.22 90.89 78.88 89.57 76.00 89.00 Z"/>
</g>
<g fill="#4D7A9C" fill-opacity="0.75" stroke="None">
<path d="
M 83.00 96.00 
C 83.00 96.00 83.67 95.76 84.00 96.00
C 84.41 94.80 84.12 92.27 84.00 91.00
C 83.96 92.09 82.37 94.05 83.00 96.00 Z"/>
</g>
<g fill="#B2C6D7" fill-opacity="0.25" stroke="None">
<path d="
M 67.00 96.00 
C 67.85 96.00 70.29 96.43 71.00 96.00
C 71.00 96.00 70.85 95.05 71.00 95.00
C 69.67 94.40 67.77 95.21 67.00 96.00 Z"/>
</g>
<g fill="#344B5D" fill-opacity="0.89" stroke="None">
<path d="
M 52.00 110.00 
C 45.28 125.83 60.44 115.93 67.00 111.00
C 66.56 107.94 64.19 105.19 62.00 103.00
C 60.46 102.55 60.88 100.24 59.00 100.00
C 58.58 104.96 56.53 103.29 54.00 101.00
C 57.40 106.39 54.33 106.50 52.00 110.00 Z"/>
</g>
</svg>