<svg xmlns="http://www.w3.org/2000/svg" xmlns:v="https://svgstorm.com"
viewBox = "0 0 96 128"
width="96"
height="128">
<g fill="None" fill-opacity="0.0" stroke="#000000" stroke-opacity="0.00" stroke-width="0.3"><path d="
M 0.00 128.00 
L 29.00 128.00
C 27.80 125.33 30.94 124.39 32.00 123.00
C 33.07 121.61 33.46 120.80 34.00 119.00
C 33.55 117.69 34.00 115.39 34.00 114.00
C 34.00 111.36 34.20 108.63 34.00 106.00
C 33.90 104.74 34.05 101.00 34.00 100.00
C 33.90 97.95 33.02 93.98 31.00 93.00
C 28.95 95.66 29.83 101.24 26.00 102.00
C 31.22 108.05 35.99 122.26 24.00 122.00 C 12.00 121.74 16.15 105.84 17.00 98.00
C 17.48 93.63 19.53 90.54 23.00 86.00
C 23.98 84.72 24.99 83.18 26.00 82.00
C 24.21 82.23 23.15 82.10 22.00 81.00
C 20.48 79.55 23.19 74.06 25.00 73.00
C 25.09 71.93 23.32 68.52 23.00 67.00
C 22.33 63.82 21.40 60.54 24.00 58.00
C 24.22 57.17 24.00 55.86 24.00 55.00
C 24.00 54.00 23.97 53.00 24.00 52.00
C 24.89 25.80 70.80 25.51 74.00 51.00
C 74.12 51.97 74.56 56.27 74.00 57.00
C 78.33 60.62 74.66 64.91 74.00 68.00
C 73.72 69.31 73.77 71.68 74.00 73.00
C 74.49 75.90 78.94 78.16 76.00 81.00
C 74.64 82.32 72.03 82.22 70.00 82.00
C 71.06 83.24 72.04 84.75 73.00 86.00
C 76.51 90.59 78.52 93.60 79.00 98.00
C 79.79 105.23 84.78 120.97 73.00 122.00 C 61.22 123.03 64.07 108.87 70.00 102.00
C 65.98 101.42 67.05 94.44 64.00 92.00
C 61.52 93.70 62.01 97.23 62.00 100.00
C 62.03 101.00 62.00 102.00 62.00 103.00
C 62.00 103.50 62.00 104.50 62.00 105.00
C 62.00 108.00 62.00 111.00 62.00 114.00
C 62.00 115.39 62.45 117.69 62.00 119.00
C 62.53 120.77 62.94 121.62 64.00 123.00
C 65.16 124.51 68.13 125.23 67.00 128.00
L 96.00 128.00
L 96.00 0.00
L 0.00 0.00
L 0.00 128.00 Z"/>
</g>
<g fill="None" fill-opacity="0.0" stroke="#4B5156" stroke-opacity="0.87" stroke-width="0.3"><path d="
M 24.00 52.00 
C 27.99 42.56 38.40 37.52 48.00 38.00 C 57.60 38.48 70.93 40.81 73.00 52.00
C 73.11 51.65 74.00 51.17 74.00 51.00
C 70.80 25.51 24.89 25.80 24.00 52.00 Z"/>
</g>
<g fill="None" fill-opacity="0.0" stroke="#3E3F42" stroke-opacity="1.00" stroke-width="0.3"><path d="
M 24.00 52.00 
C 23.97 53.00 24.00 54.00 24.00 55.00
C 24.11 55.41 24.83 56.19 25.00 57.00
C 25.84 56.31 26.90 55.95 28.00 56.00
C 27.83 58.14 28.11 60.84 30.00 62.00
C 32.63 62.77 32.58 60.38 34.00 60.00
C 34.46 58.98 31.77 53.32 36.03 54.03 C 40.28 54.73 40.73 52.18 44.00 51.00
C 45.90 54.34 49.46 56.25 53.00 57.00
C 56.18 57.89 59.49 58.39 63.00 58.00
C 61.67 55.50 57.26 58.57 56.00 56.00
C 56.23 54.78 58.08 54.99 59.00 55.00
C 59.46 54.94 63.77 55.80 64.00 56.00
C 65.09 56.95 65.20 58.44 65.00 60.00
C 64.94 60.49 65.00 61.00 65.00 61.00
C 70.02 66.14 68.78 54.87 73.00 56.00
C 72.76 55.22 72.76 52.78 73.00 52.00
C 70.93 40.81 57.60 38.48 48.00 38.00 C 38.40 37.52 27.99 42.56 24.00 52.00
M 67.00 49.00 
C 56.02 44.51 41.96 44.67 31.00 49.00
C 37.33 37.57 61.07 37.16 67.00 49.00 Z"/>
</g>
<g fill="None" fill-opacity="0.0" stroke="#6D9BB5" stroke-opacity="1.00" stroke-width="0.3"><path d="
M 67.00 49.00 
C 61.07 37.16 37.33 37.57 31.00 49.00
C 41.96 44.67 56.02 44.51 67.00 49.00 Z"/>
</g>
<g fill="None" fill-opacity="0.0" stroke="#B77555" stroke-opacity="0.98" stroke-width="0.3"><path d="
M 34.00 60.00 
C 36.33 59.38 38.37 60.53 40.00 61.00
C 42.17 61.62 42.66 60.93 44.00 63.00
C 45.15 64.78 46.13 67.99 41.92 68.92 C 37.70 69.85 37.30 66.68 37.00 63.00
C 36.98 62.81 36.27 62.20 36.00 62.00
C 34.49 62.32 31.46 63.01 30.00 62.00
C 28.11 60.84 27.83 58.14 28.00 56.00
C 26.90 55.95 25.84 56.31 25.00 57.00
C 25.06 57.29 24.25 57.75 24.00 58.00
C 21.40 60.54 22.33 63.82 23.00 67.00
C 25.05 69.10 26.45 64.76 29.00 66.00
C 29.06 68.12 29.23 70.23 28.00 72.00
C 29.01 71.64 29.76 70.68 31.00 71.00
C 30.95 74.46 34.50 76.28 36.00 79.00
C 36.21 79.27 36.97 79.65 37.00 80.00
C 42.80 83.40 51.75 81.74 58.00 81.00
C 58.49 80.94 59.50 81.00 60.00 81.00
C 60.25 80.88 62.79 79.16 63.00 79.00
C 64.11 78.12 69.74 71.54 70.00 71.00
C 70.00 71.00 71.45 60.70 74.00 68.00
C 74.66 64.91 78.33 60.62 74.00 57.00
C 73.72 56.77 73.11 56.35 73.00 56.00
C 68.78 54.87 70.02 66.14 65.00 61.00
C 63.35 61.48 62.89 61.40 62.00 63.00
C 60.28 66.07 61.89 70.05 56.00 69.00
C 52.14 68.17 53.30 60.36 58.00 61.00
C 58.49 61.07 59.00 61.00 59.00 61.00
C 60.31 59.88 63.06 59.54 65.00 60.00
C 65.20 58.44 65.09 56.95 64.00 56.00
C 64.00 57.00 64.00 58.00 64.00 59.00
C 60.50 58.23 54.98 60.86 53.00 57.00
C 49.46 56.25 45.90 54.34 44.00 51.00
C 40.73 52.18 40.28 54.73 36.03 54.03 C 31.77 53.32 34.46 58.98 34.00 60.00
M 45.00 57.00 
C 44.52 60.40 37.03 59.39 35.00 58.00
C 36.94 53.85 41.54 58.40 45.00 57.00
M 46.00 66.00 
C 58.65 63.42 47.49 76.09 46.00 66.00
M 44.00 75.00 
C 42.83 74.35 43.04 73.26 43.00 72.00
C 45.67 72.00 48.33 72.00 51.00 72.00
C 54.95 74.46 46.65 77.65 44.00 75.00 Z"/>
</g>
<g fill="None" fill-opacity="0.0" stroke="#4C4E52" stroke-opacity="0.48" stroke-width="0.3"><path d="
M 73.00 52.00 
C 72.76 52.78 72.76 55.22 73.00 56.00
C 73.11 56.35 73.72 56.77 74.00 57.00
C 74.56 56.27 74.12 51.97 74.00 51.00
C 74.00 51.17 73.11 51.65 73.00 52.00 Z"/>
</g>
<g fill="None" fill-opacity="0.0" stroke="#4E4F53" stroke-opacity="0.70" stroke-width="0.3"><path d="
M 24.00 58.00 
C 24.25 57.75 25.06 57.29 25.00 57.00
C 24.83 56.19 24.11 55.41 24.00 55.00
C 24.00 55.86 24.22 57.17 24.00 58.00 Z"/>
</g>
<g fill="None" fill-opacity="0.0" stroke="#B97657" stroke-opacity="1.00" stroke-width="0.3"><path d="
M 56.00 56.00 
C 57.15 57.07 58.55 55.06 59.00 55.00
C 58.08 54.99 56.23 54.78 56.00 56.00 Z"/>
</g>
<g fill="None" fill-opacity="0.0" stroke="#78584A" stroke-opacity="1.00" stroke-width="0.3"><path d="
M 56.00 56.00 
C 57.26 58.57 61.67 55.50 63.00 58.00
C 59.49 58.39 56.18 57.89 53.00 57.00
C 54.98 60.86 60.50 58.23 64.00 59.00
C 64.00 58.00 64.00 57.00 64.00 56.00
C 63.77 55.80 59.46 54.94 59.00 55.00
C 58.55 55.06 57.15 57.07 56.00 56.00 Z"/>
</g>
<g fill="None" fill-opacity="0.0" stroke="#524844" stroke-opacity="1.00" stroke-width="0.3"><path d="
M 45.00 57.00 
C 41.54 58.40 36.94 53.85 35.00 58.00
C 37.03 59.39 44.52 60.40 45.00 57.00 Z"/>
</g>
<g fill="None" fill-opacity="0.0" stroke="#815E4E" stroke-opacity="1.00" stroke-width="0.3"><path d="
M 30.00 62.00 
C 31.46 63.01 34.49 62.32 36.00 62.00
C 36.46 61.90 37.03 61.07 38.00 61.00
C 38.50 60.96 39.84 60.77 40.00 61.00
C 38.37 60.53 36.33 59.38 34.00 60.00
C 32.58 60.38 32.63 62.77 30.00 62.00 Z"/>
</g>
<g fill="None" fill-opacity="0.0" stroke="#756057" stroke-opacity="1.00" stroke-width="0.3"><path d="
M 59.00 61.00 
C 60.00 61.37 60.93 63.07 62.00 63.00
C 62.89 61.40 63.35 61.48 65.00 61.00
C 65.00 61.00 64.94 60.49 65.00 60.00
C 63.06 59.54 60.31 59.88 59.00 61.00 Z"/>
</g>
<g fill="None" fill-opacity="0.0" stroke="#444345" stroke-opacity="1.00" stroke-width="0.3"><path d="
M 36.00 62.00 
C 36.27 62.20 36.98 62.81 37.00 63.00
C 37.14 62.42 38.23 61.65 38.00 61.00
C 37.03 61.07 36.46 61.90 36.00 62.00 Z"/>
</g>
<g fill="None" fill-opacity="0.0" stroke="#E8E0DC" stroke-opacity="1.00" stroke-width="0.3"><path d="
M 37.00 63.00 
C 37.30 66.68 37.70 69.85 41.92 68.92 C 46.13 67.99 45.15 64.78 44.00 63.00
C 47.51 68.07 35.28 69.68 40.00 62.00
C 40.22 61.64 40.00 61.00 40.00 61.00
C 39.84 60.77 38.50 60.96 38.00 61.00
C 38.23 61.65 37.14 62.42 37.00 63.00 Z"/>
</g>
<g fill="None" fill-opacity="0.0" stroke="#ABABAB" stroke-opacity="1.00" stroke-width="0.3"><path d="
M 40.00 62.00 
C 41.08 62.23 43.22 61.88 44.00 63.00
C 42.66 60.93 42.17 61.62 40.00 61.00
C 40.00 61.00 40.22 61.64 40.00 62.00 Z"/>
</g>
<g fill="None" fill-opacity="0.0" stroke="#B4ACA9" stroke-opacity="1.00" stroke-width="0.3"><path d="
M 56.00 69.00 
C 55.91 68.98 56.00 68.00 56.00 68.00
C 54.84 66.16 54.91 64.16 55.00 62.00
C 56.56 61.59 57.69 62.46 59.00 63.00
C 58.93 62.71 57.70 61.28 58.00 61.00
C 53.30 60.36 52.14 68.17 56.00 69.00 Z"/>
</g>
<g fill="None" fill-opacity="0.0" stroke="#EBE7E5" stroke-opacity="1.00" stroke-width="0.3"><path d="
M 59.00 63.00 
C 59.60 65.59 58.69 67.80 56.00 68.00
C 56.00 68.00 55.91 68.98 56.00 69.00
C 61.89 70.05 60.28 66.07 62.00 63.00
C 60.93 63.07 60.00 61.37 59.00 61.00
C 59.00 61.00 58.49 61.07 58.00 61.00
C 57.70 61.28 58.93 62.71 59.00 63.00 Z"/>
</g>
<g fill="None" fill-opacity="0.0" stroke="#46484B" stroke-opacity="1.00" stroke-width="0.3"><path d="
M 44.00 63.00 
C 43.22 61.88 41.08 62.23 40.00 62.00
C 35.28 69.68 47.51 68.07 44.00 63.00 Z"/>
</g>
<g fill="None" fill-opacity="0.0" stroke="#3D3F42" stroke-opacity="1.00" stroke-width="0.3"><path d="
M 56.00 68.00 
C 58.69 67.80 59.60 65.59 59.00 63.00
C 57.69 62.46 56.56 61.59 55.00 62.00
C 54.91 64.16 54.84 66.16 56.00 68.00 Z"/>
</g>
<g fill="None" fill-opacity="0.0" stroke="#D5935F" stroke-opacity="0.85" stroke-width="0.3"><path d="
M 23.00 67.00 
C 23.32 68.52 25.09 71.93 25.00 73.00
C 25.32 72.81 27.69 72.11 28.00 72.00
C 29.23 70.23 29.06 68.12 29.00 66.00
C 26.45 64.76 25.05 69.10 23.00 67.00 Z"/>
</g>
<g fill="None" fill-opacity="0.0" stroke="#975637" stroke-opacity="1.00" stroke-width="0.3"><path d="
M 46.00 66.00 
C 47.49 76.09 58.65 63.42 46.00 66.00 Z"/>
</g>
<g fill="None" fill-opacity="0.0" stroke="#D9955D" stroke-opacity="0.96" stroke-width="0.3"><path d="
M 70.00 71.00 
C 71.37 73.23 72.40 71.82 74.00 73.00
C 73.77 71.68 73.72 69.31 74.00 68.00
C 71.45 60.70 70.00 71.00 70.00 71.00 Z"/>
</g>
<g fill="None" fill-opacity="0.0" stroke="#424446" stroke-opacity="0.91" stroke-width="0.3"><path d="
M 28.00 72.00 
C 27.69 72.11 25.32 72.81 25.00 73.00
C 23.19 74.06 20.48 79.55 22.00 81.00
C 23.25 81.64 26.57 81.00 28.00 81.00
C 30.00 81.00 32.00 81.00 34.00 81.00
C 34.12 80.96 36.05 79.00 36.00 79.00
C 34.50 76.28 30.95 74.46 31.00 71.00
C 29.76 70.68 29.01 71.64 28.00 72.00 Z"/>
</g>
<g fill="None" fill-opacity="0.0" stroke="#414346" stroke-opacity="0.94" stroke-width="0.3"><path d="
M 63.00 79.00 
C 63.38 79.07 64.71 80.92 65.00 81.00
C 65.50 81.00 66.50 81.00 67.00 81.00
C 67.50 81.00 68.00 81.00 68.00 81.00
C 69.67 81.00 74.66 81.88 76.00 81.00
C 78.94 78.16 74.49 75.90 74.00 73.00
C 72.40 71.82 71.37 73.23 70.00 71.00
C 69.74 71.54 64.11 78.12 63.00 79.00 Z"/>
</g>
<g fill="None" fill-opacity="0.0" stroke="#F9F2EE" stroke-opacity="1.00" stroke-width="0.3"><path d="
M 44.00 75.00 
C 45.78 75.99 49.08 74.26 51.00 75.00
C 51.00 74.00 51.00 73.00 51.00 72.00
C 48.33 72.00 45.67 72.00 43.00 72.00
C 43.04 73.26 42.83 74.35 44.00 75.00 Z"/>
</g>
<g fill="None" fill-opacity="0.0" stroke="#D2AD9D" stroke-opacity="1.00" stroke-width="0.3"><path d="
M 44.00 75.00 
C 46.65 77.65 54.95 74.46 51.00 72.00
C 51.00 73.00 51.00 74.00 51.00 75.00
C 49.08 74.26 45.78 75.99 44.00 75.00 Z"/>
</g>
<g fill="None" fill-opacity="0.0" stroke="#090909" stroke-opacity="0.11" stroke-width="0.3"><path d="
M 34.00 81.00 
C 34.39 81.00 36.76 81.26 37.00 81.00
C 37.00 80.50 37.00 80.00 37.00 80.00
C 36.97 79.65 36.21 79.27 36.00 79.00
C 36.05 79.00 34.12 80.96 34.00 81.00 Z"/>
</g>
<g fill="None" fill-opacity="0.0" stroke="#111111" stroke-opacity="0.13" stroke-width="0.3"><path d="
M 60.00 81.00 
C 61.67 81.00 63.33 81.00 65.00 81.00
C 64.71 80.92 63.38 79.07 63.00 79.00
C 62.79 79.16 60.25 80.88 60.00 81.00 Z"/>
</g>
<g fill="None" fill-opacity="0.0" stroke="#9B6349" stroke-opacity="1.00" stroke-width="0.3"><path d="
M 37.00 81.00 
C 37.00 81.50 37.02 82.50 37.00 83.00
C 39.82 89.65 54.97 91.84 58.00 84.00
C 58.02 83.59 58.25 81.27 58.00 81.00
C 51.75 81.74 42.80 83.40 37.00 80.00
C 37.00 80.00 37.00 80.50 37.00 81.00 Z"/>
</g>
<g fill="None" fill-opacity="0.0" stroke="#4F5855" stroke-opacity="0.23" stroke-width="0.3"><path d="
M 26.00 82.00 
C 26.49 81.94 27.00 82.00 27.00 82.00
C 27.35 81.97 27.75 81.09 28.00 81.00
C 26.57 81.00 23.25 81.64 22.00 81.00
C 23.15 82.10 24.21 82.23 26.00 82.00 Z"/>
</g>
<g fill="None" fill-opacity="0.0" stroke="#39AD6F" stroke-opacity="0.95" stroke-width="0.3"><path d="
M 27.00 82.00 
C 25.80 83.54 24.22 84.68 23.00 86.00
C 19.53 90.54 17.48 93.63 17.00 98.00
C 18.90 100.41 23.85 99.51 26.00 102.00
C 29.83 101.24 28.95 95.66 31.00 93.00
C 33.02 93.98 33.90 97.95 34.00 100.00
C 36.98 101.94 43.21 99.35 47.00 100.00 C 50.79 100.65 56.99 100.00 61.00 100.00
C 61.50 100.00 62.00 100.00 62.00 100.00
C 62.01 97.23 61.52 93.70 64.00 92.00
C 67.05 94.44 65.98 101.42 70.00 102.00
C 72.14 99.52 77.11 100.39 79.00 98.00
C 78.52 93.60 76.51 90.59 73.00 86.00
C 72.73 85.75 72.00 86.00 72.00 86.00
C 70.20 85.12 67.76 82.81 67.00 81.00
C 66.50 81.00 65.50 81.00 65.00 81.00
C 63.33 81.00 61.67 81.00 60.00 81.00
C 59.50 81.00 58.49 80.94 58.00 81.00
C 58.25 81.27 58.02 83.59 58.00 84.00
C 57.48 94.99 36.46 94.40 37.00 83.00
C 37.02 82.50 37.00 81.50 37.00 81.00
C 36.76 81.26 34.39 81.00 34.00 81.00
C 32.00 81.00 30.00 81.00 28.00 81.00
C 27.75 81.09 27.35 81.97 27.00 82.00 Z"/>
</g>
<g fill="None" fill-opacity="0.0" stroke="#45B97B" stroke-opacity="0.75" stroke-width="0.3"><path d="
M 72.00 86.00 
C 70.96 84.78 70.02 83.15 69.00 82.00
C 68.65 81.97 68.26 81.12 68.00 81.00
C 68.00 81.00 67.50 81.00 67.00 81.00
C 67.76 82.81 70.20 85.12 72.00 86.00 Z"/>
</g>
<g fill="None" fill-opacity="0.0" stroke="#4F4F50" stroke-opacity="0.23" stroke-width="0.3"><path d="
M 69.00 82.00 
C 69.50 82.05 70.00 82.00 70.00 82.00
C 72.03 82.22 74.64 82.32 76.00 81.00
C 74.66 81.88 69.67 81.00 68.00 81.00
C 68.26 81.12 68.65 81.97 69.00 82.00 Z"/>
</g>
<g fill="None" fill-opacity="0.0" stroke="#448877" stroke-opacity="0.06" stroke-width="0.3"><path d="
M 23.00 86.00 
C 24.22 84.68 25.80 83.54 27.00 82.00
C 27.00 82.00 26.49 81.94 26.00 82.00
C 24.99 83.18 23.98 84.72 23.00 86.00 Z"/>
</g>
<g fill="None" fill-opacity="0.0" stroke="#448877" stroke-opacity="0.06" stroke-width="0.3"><path d="
M 72.00 86.00 
C 72.00 86.00 72.73 85.75 73.00 86.00
C 72.04 84.75 71.06 83.24 70.00 82.00
C 70.00 82.00 69.50 82.05 69.00 82.00
C 70.02 83.15 70.96 84.78 72.00 86.00 Z"/>
</g>
<g fill="None" fill-opacity="0.0" stroke="#D2D4D1" stroke-opacity="1.00" stroke-width="0.3"><path d="
M 58.00 84.00 
C 54.97 91.84 39.82 89.65 37.00 83.00
C 36.46 94.40 57.48 94.99 58.00 84.00 Z"/>
</g>
<g fill="None" fill-opacity="0.0" stroke="#AC7053" stroke-opacity="0.91" stroke-width="0.3"><path d="
M 26.00 102.00 
C 23.85 99.51 18.90 100.41 17.00 98.00
C 16.15 105.84 12.00 121.74 24.00 122.00 C 35.99 122.26 31.22 108.05 26.00 102.00 Z"/>
</g>
<g fill="None" fill-opacity="0.0" stroke="#AC7053" stroke-opacity="0.91" stroke-width="0.3"><path d="
M 70.00 102.00 
C 64.07 108.87 61.22 123.03 73.00 122.00 C 84.78 120.97 79.79 105.23 79.00 98.00
C 77.11 100.39 72.14 99.52 70.00 102.00 Z"/>
</g>
<g fill="None" fill-opacity="0.0" stroke="#3A3C40" stroke-opacity="0.97" stroke-width="0.3"><path d="
M 34.00 106.00 
C 42.51 103.15 54.32 107.25 62.00 103.00
C 62.00 102.00 62.03 101.00 62.00 100.00
C 62.00 100.00 61.50 100.00 61.00 100.00
C 55.09 104.37 40.34 99.64 34.00 100.00
C 34.05 101.00 33.90 104.74 34.00 106.00 Z"/>
</g>
<g fill="None" fill-opacity="0.0" stroke="#387758" stroke-opacity="1.00" stroke-width="0.3"><path d="
M 61.00 100.00 
C 56.99 100.00 50.79 100.65 47.00 100.00 C 43.21 99.35 36.98 101.94 34.00 100.00
C 40.34 99.64 55.09 104.37 61.00 100.00 Z"/>
</g>
<g fill="None" fill-opacity="0.0" stroke="#4D507C" stroke-opacity="1.00" stroke-width="0.3"><path d="
M 34.00 106.00 
C 37.95 105.26 44.29 106.99 48.00 106.00 C 51.71 105.01 59.50 108.24 62.00 105.00
C 62.00 104.50 62.00 103.50 62.00 103.00
C 54.32 107.25 42.51 103.15 34.00 106.00 Z"/>
</g>
<g fill="None" fill-opacity="0.0" stroke="#6266B9" stroke-opacity="0.96" stroke-width="0.3"><path d="
M 34.00 106.00 
C 34.20 108.63 34.00 111.36 34.00 114.00
C 34.05 113.85 35.00 114.00 35.00 114.00
C 38.00 114.00 41.00 114.00 44.00 114.00
C 44.86 108.60 51.13 108.50 52.00 114.00
C 55.00 114.00 58.00 114.00 61.00 114.00
C 61.50 114.00 62.00 114.00 62.00 114.00
C 62.00 111.00 62.00 108.00 62.00 105.00
C 59.50 108.24 51.71 105.01 48.00 106.00 C 44.29 106.99 37.95 105.26 34.00 106.00 Z"/>
</g>
<g fill="None" fill-opacity="0.0" stroke="#000000" stroke-opacity="0.00" stroke-width="0.3"><path d="
M 44.00 114.00 
C 43.75 115.57 44.00 117.40 44.00 119.00
C 44.00 121.00 44.00 123.00 44.00 125.00
C 44.00 126.00 44.00 127.00 44.00 128.00
L 52.00 128.00
C 52.00 127.00 52.00 126.00 52.00 125.00
C 52.00 123.00 52.00 121.00 52.00 119.00
C 52.00 117.40 52.25 115.57 52.00 114.00
C 51.13 108.50 44.86 108.60 44.00 114.00 Z"/>
</g>
<g fill="None" fill-opacity="0.0" stroke="#B37A5F" stroke-opacity="0.38" stroke-width="0.3"><path d="
M 34.00 119.00 
C 34.04 118.86 35.00 119.00 35.00 119.00
C 35.31 118.10 35.31 114.90 35.00 114.00
C 35.00 114.00 34.05 113.85 34.00 114.00
C 34.00 115.39 33.55 117.69 34.00 119.00 Z"/>
</g>
<g fill="None" fill-opacity="0.0" stroke="#AE7053" stroke-opacity="1.00" stroke-width="0.3"><path d="
M 35.00 119.00 
C 38.00 119.00 41.00 119.00 44.00 119.00
C 44.00 117.40 43.75 115.57 44.00 114.00
C 41.00 114.00 38.00 114.00 35.00 114.00
C 35.31 114.90 35.31 118.10 35.00 119.00 Z"/>
</g>
<g fill="None" fill-opacity="0.0" stroke="#AE7053" stroke-opacity="1.00" stroke-width="0.3"><path d="
M 52.00 119.00 
C 55.00 119.00 58.00 119.00 61.00 119.00
C 60.69 118.10 60.69 114.90 61.00 114.00
C 58.00 114.00 55.00 114.00 52.00 114.00
C 52.25 115.57 52.00 117.40 52.00 119.00 Z"/>
</g>
<g fill="None" fill-opacity="0.0" stroke="#B37A5F" stroke-opacity="0.38" stroke-width="0.3"><path d="
M 61.00 119.00 
C 61.50 119.00 62.00 119.00 62.00 119.00
C 62.45 117.69 62.00 115.39 62.00 114.00
C 62.00 114.00 61.50 114.00 61.00 114.00
C 60.69 114.90 60.69 118.10 61.00 119.00 Z"/>
</g>
<g fill="None" fill-opacity="0.0" stroke="#A5B6C3" stroke-opacity="0.96" stroke-width="0.3"><path d="
M 32.00 123.00 
C 31.19 127.25 40.53 123.96 44.00 125.00
C 44.00 123.00 44.00 121.00 44.00 119.00
C 41.00 119.00 38.00 119.00 35.00 119.00
C 35.00 119.00 34.04 118.86 34.00 119.00
C 33.46 120.80 33.07 121.61 32.00 123.00 Z"/>
</g>
<g fill="None" fill-opacity="0.0" stroke="#A5B6C3" stroke-opacity="0.96" stroke-width="0.3"><path d="
M 52.00 125.00 
C 55.40 123.90 64.83 127.35 64.00 123.00
C 62.94 121.62 62.53 120.77 62.00 119.00
C 62.00 119.00 61.50 119.00 61.00 119.00
C 58.00 119.00 55.00 119.00 52.00 119.00
C 52.00 121.00 52.00 123.00 52.00 125.00 Z"/>
</g>
<g fill="None" fill-opacity="0.0" stroke="#D2D1D1" stroke-opacity="0.96" stroke-width="0.3"><path d="
M 29.00 128.00 
L 44.00 128.00
C 44.00 127.00 44.00 126.00 44.00 125.00
C 40.53 123.96 31.19 127.25 32.00 123.00
C 30.94 124.39 27.80 125.33 29.00 128.00 Z"/>
</g>
<g fill="None" fill-opacity="0.0" stroke="#D2D1D1" stroke-opacity="0.96" stroke-width="0.3"><path d="
M 52.00 125.00 
C 52.00 126.00 52.00 127.00 52.00 128.00
L 67.00 128.00
C 68.13 125.23 65.16 124.51 64.00 123.00
C 64.83 127.35 55.40 123.90 52.00 125.00 Z"/>
</g>
<g fill="#000000" fill-opacity="0.00" stroke="None">
<path d="
M 0.00 128.00 
L 29.00 128.00
C 27.80 125.33 30.94 124.39 32.00 123.00
C 33.07 121.61 33.46 120.80 34.00 119.00
C 33.55 117.69 34.00 115.39 34.00 114.00
C 34.00 111.36 34.20 108.63 34.00 106.00
C 33.90 104.74 34.05 101.00 34.00 100.00
C 33.90 97.95 33.02 93.98 31.00 93.00
C 28.95 95.66 29.83 101.24 26.00 102.00
C 31.22 108.05 35.99 122.26 24.00 122.00 C 12.00 121.74 16.15 105.84 17.00 98.00
C 17.48 93.63 19.53 90.54 23.00 86.00
C 23.98 84.72 24.99 83.18 26.00 82.00
C 24.21 82.23 23.15 82.10 22.00 81.00
C 20.48 79.55 23.19 74.06 25.00 73.00
C 25.09 71.93 23.32 68.52 23.00 67.00
C 22.33 63.82 21.40 60.54 24.00 58.00
C 24.22 57.17 24.00 55.86 24.00 55.00
C 24.00 54.00 23.97 53.00 24.00 52.00
C 24.89 25.80 70.80 25.51 74.00 51.00
C 74.12 51.97 74.56 56.27 74.00 57.00
C 78.33 60.62 74.66 64.91 74.00 68.00
C 73.72 69.31 73.77 71.68 74.00 73.00
C 74.49 75.90 78.94 78.16 76.00 81.00
C 74.64 82.32 72.03 82.22 70.00 82.00
C 71.06 83.24 72.04 84.75 73.00 86.00
C 76.51 90.59 78.52 93.60 79.00 98.00
C 79.79 105.23 84.78 120.97 73.00 122.00 C 61.22 123.03 64.07 108.87 70.00 102.00
C 65.98 101.42 67.05 94.44 64.00 92.00
C 61.52 93.70 62.01 97.23 62.00 100.00
C 62.03 101.00 62.00 102.00 62.00 103.00
C 62.00 103.50 62.00 104.50 62.00 105.00
C 62.00 108.00 62.00 111.00 62.00 114.00
C 62.00 115.39 62.45 117.69 62.00 119.00
C 62.53 120.77 62.94 121.62 64.00 123.00
C 65.16 124.51 68.13 125.23 67.00 128.00
L 96.00 128.00
L 96.00 0.00
L 0.00 0.00
L 0.00 128.00 Z"/>
</g>
<g fill="#4B5156" fill-opacity="0.87" stroke="None">
<path d="
M 24.00 52.00 
C 27.99 42.56 38.40 37.52 48.00 38.00 C 57.60 38.48 70.93 40.81 73.00 52.00
C 73.11 51.65 74.00 51.17 74.00 51.00
C 70.80 25.51 24.89 25.80 24.00 52.00 Z"/>
</g>
<g fill="#3E3F42" fill-opacity="1.00" stroke="None">
<path d="
M 24.00 52.00 
C 23.97 53.00 24.00 54.00 24.00 55.00
C 24.11 55.41 24.83 56.19 25.00 57.00
C 25.84 56.31 26.90 55.95 28.00 56.00
C 27.83 58.14 28.11 60.84 30.00 62.00
C 32.63 62.77 32.58 60.38 34.00 60.00
C 34.46 58.98 31.77 53.32 36.03 54.03 C 40.28 54.73 40.73 52.18 44.00 51.00
C 45.90 54.34 49.46 56.25 53.00 57.00
C 56.18 57.89 59.49 58.39 63.00 58.00
C 61.67 55.50 57.26 58.57 56.00 56.00
C 56.23 54.78 58.08 54.99 59.00 55.00
C 59.46 54.94 63.77 55.80 64.00 56.00
C 65.09 56.95 65.20 58.44 65.00 60.00
C 64.94 60.49 65.00 61.00 65.00 61.00
C 70.02 66.14 68.78 54.87 73.00 56.00
C 72.76 55.22 72.76 52.78 73.00 52.00
C 70.93 40.81 57.60 38.48 48.00 38.00 C 38.40 37.52 27.99 42.56 24.00 52.00
M 67.00 49.00 
C 56.02 44.51 41.96 44.67 31.00 49.00
C 37.33 37.57 61.07 37.16 67.00 49.00 Z"/>
</g>
<g fill="#6D9BB5" fill-opacity="1.00" stroke="None">
<path d="
M 67.00 49.00 
C 61.07 37.16 37.33 37.57 31.00 49.00
C 41.96 44.67 56.02 44.51 67.00 49.00 Z"/>
</g>
<g fill="#B77555" fill-opacity="0.98" stroke="None">
<path d="
M 34.00 60.00 
C 36.33 59.38 38.37 60.53 40.00 61.00
C 42.17 61.62 42.66 60.93 44.00 63.00
C 45.15 64.78 46.13 67.99 41.92 68.92 C 37.70 69.85 37.30 66.68 37.00 63.00
C 36.98 62.81 36.27 62.20 36.00 62.00
C 34.49 62.32 31.46 63.01 30.00 62.00
C 28.11 60.84 27.83 58.14 28.00 56.00
C 26.90 55.95 25.84 56.31 25.00 57.00
C 25.06 57.29 24.25 57.75 24.00 58.00
C 21.40 60.54 22.33 63.82 23.00 67.00
C 25.05 69.10 26.45 64.76 29.00 66.00
C 29.06 68.12 29.23 70.23 28.00 72.00
C 29.01 71.64 29.76 70.68 31.00 71.00
C 30.95 74.46 34.50 76.28 36.00 79.00
C 36.21 79.27 36.97 79.65 37.00 80.00
C 42.80 83.40 51.75 81.74 58.00 81.00
C 58.49 80.94 59.50 81.00 60.00 81.00
C 60.25 80.88 62.79 79.16 63.00 79.00
C 64.11 78.12 69.74 71.54 70.00 71.00
C 70.00 71.00 71.45 60.70 74.00 68.00
C 74.66 64.91 78.33 60.62 74.00 57.00
C 73.72 56.77 73.11 56.35 73.00 56.00
C 68.78 54.87 70.02 66.14 65.00 61.00
C 63.35 61.48 62.89 61.40 62.00 63.00
C 60.28 66.07 61.89 70.05 56.00 69.00
C 52.14 68.17 53.30 60.36 58.00 61.00
C 58.49 61.07 59.00 61.00 59.00 61.00
C 60.31 59.88 63.06 59.54 65.00 60.00
C 65.20 58.44 65.09 56.95 64.00 56.00
C 64.00 57.00 64.00 58.00 64.00 59.00
C 60.50 58.23 54.98 60.86 53.00 57.00
C 49.46 56.25 45.90 54.34 44.00 51.00
C 40.73 52.18 40.28 54.73 36.03 54.03 C 31.77 53.32 34.46 58.98 34.00 60.00
M 45.00 57.00 
C 44.52 60.40 37.03 59.39 35.00 58.00
C 36.94 53.85 41.54 58.40 45.00 57.00
M 46.00 66.00 
C 58.65 63.42 47.49 76.09 46.00 66.00
M 44.00 75.00 
C 42.83 74.35 43.04 73.26 43.00 72.00
C 45.67 72.00 48.33 72.00 51.00 72.00
C 54.95 74.46 46.65 77.65 44.00 75.00 Z"/>
</g>
<g fill="#4C4E52" fill-opacity="0.48" stroke="None">
<path d="
M 73.00 52.00 
C 72.76 52.78 72.76 55.22 73.00 56.00
C 73.11 56.35 73.72 56.77 74.00 57.00
C 74.56 56.27 74.12 51.97 74.00 51.00
C 74.00 51.17 73.11 51.65 73.00 52.00 Z"/>
</g>
<g fill="#4E4F53" fill-opacity="0.70" stroke="None">
<path d="
M 24.00 58.00 
C 24.25 57.75 25.06 57.29 25.00 57.00
C 24.83 56.19 24.11 55.41 24.00 55.00
C 24.00 55.86 24.22 57.17 24.00 58.00 Z"/>
</g>
<g fill="#B97657" fill-opacity="1.00" stroke="None">
<path d="
M 56.00 56.00 
C 57.15 57.07 58.55 55.06 59.00 55.00
C 58.08 54.99 56.23 54.78 56.00 56.00 Z"/>
</g>
<g fill="#78584A" fill-opacity="1.00" stroke="None">
<path d="
M 56.00 56.00 
C 57.26 58.57 61.67 55.50 63.00 58.00
C 59.49 58.39 56.18 57.89 53.00 57.00
C 54.98 60.86 60.50 58.23 64.00 59.00
C 64.00 58.00 64.00 57.00 64.00 56.00
C 63.77 55.80 59.46 54.94 59.00 55.00
C 58.55 55.06 57.15 57.07 56.00 56.00 Z"/>
</g>
<g fill="#524844" fill-opacity="1.00" stroke="None">
<path d="
M 45.00 57.00 
C 41.54 58.40 36.94 53.85 35.00 58.00
C 37.03 59.39 44.52 60.40 45.00 57.00 Z"/>
</g>
<g fill="#815E4E" fill-opacity="1.00" stroke="None">
<path d="
M 30.00 62.00 
C 31.46 63.01 34.49 62.32 36.00 62.00
C 36.46 61.90 37.03 61.07 38.00 61.00
C 38.50 60.96 39.84 60.77 40.00 61.00
C 38.37 60.53 36.33 59.38 34.00 60.00
C 32.58 60.38 32.63 62.77 30.00 62.00 Z"/>
</g>
<g fill="#756057" fill-opacity="1.00" stroke="None">
<path d="
M 59.00 61.00 
C 60.00 61.37 60.93 63.07 62.00 63.00
C 62.89 61.40 63.35 61.48 65.00 61.00
C 65.00 61.00 64.94 60.49 65.00 60.00
C 63.06 59.54 60.31 59.88 59.00 61.00 Z"/>
</g>
<g fill="#444345" fill-opacity="1.00" stroke="None">
<path d="
M 36.00 62.00 
C 36.27 62.20 36.98 62.81 37.00 63.00
C 37.14 62.42 38.23 61.65 38.00 61.00
C 37.03 61.07 36.46 61.90 36.00 62.00 Z"/>
</g>
<g fill="#E8E0DC" fill-opacity="1.00" stroke="None">
<path d="
M 37.00 63.00 
C 37.30 66.68 37.70 69.85 41.92 68.92 C 46.13 67.99 45.15 64.78 44.00 63.00
C 47.51 68.07 35.28 69.68 40.00 62.00
C 40.22 61.64 40.00 61.00 40.00 61.00
C 39.84 60.77 38.50 60.96 38.00 61.00
C 38.23 61.65 37.14 62.42 37.00 63.00 Z"/>
</g>
<g fill="#ABABAB" fill-opacity="1.00" stroke="None">
<path d="
M 40.00 62.00 
C 41.08 62.23 43.22 61.88 44.00 63.00
C 42.66 60.93 42.17 61.62 40.00 61.00
C 40.00 61.00 40.22 61.64 40.00 62.00 Z"/>
</g>
<g fill="#B4ACA9" fill-opacity="1.00" stroke="None">
<path d="
M 56.00 69.00 
C 55.91 68.98 56.00 68.00 56.00 68.00
C 54.84 66.16 54.91 64.16 55.00 62.00
C 56.56 61.59 57.69 62.46 59.00 63.00
C 58.93 62.71 57.70 61.28 58.00 61.00
C 53.30 60.36 52.14 68.17 56.00 69.00 Z"/>
</g>
<g fill="#EBE7E5" fill-opacity="1.00" stroke="None">
<path d="
M 59.00 63.00 
C 59.60 65.59 58.69 67.80 56.00 68.00
C 56.00 68.00 55.91 68.98 56.00 69.00
C 61.89 70.05 60.28 66.07 62.00 63.00
C 60.93 63.07 60.00 61.37 59.00 61.00
C 59.00 61.00 58.49 61.07 58.00 61.00
C 57.70 61.28 58.93 62.71 59.00 63.00 Z"/>
</g>
<g fill="#46484B" fill-opacity="1.00" stroke="None">
<path d="
M 44.00 63.00 
C 43.22 61.88 41.08 62.23 40.00 62.00
C 35.28 69.68 47.51 68.07 44.00 63.00 Z"/>
</g>
<g fill="#3D3F42" fill-opacity="1.00" stroke="None">
<path d="
M 56.00 68.00 
C 58.69 67.80 59.60 65.59 59.00 63.00
C 57.69 62.46 56.56 61.59 55.00 62.00
C 54.91 64.16 54.84 66.16 56.00 68.00 Z"/>
</g>
<g fill="#D5935F" fill-opacity="0.85" stroke="None">
<path d="
M 23.00 67.00 
C 23.32 68.52 25.09 71.93 25.00 73.00
C 25.32 72.81 27.69 72.11 28.00 72.00
C 29.23 70.23 29.06 68.12 29.00 66.00
C 26.45 64.76 25.05 69.10 23.00 67.00 Z"/>
</g>
<g fill="#975637" fill-opacity="1.00" stroke="None">
<path d="
M 46.00 66.00 
C 47.49 76.09 58.65 63.42 46.00 66.00 Z"/>
</g>
<g fill="#D9955D" fill-opacity="0.96" stroke="None">
<path d="
M 70.00 71.00 
C 71.37 73.23 72.40 71.82 74.00 73.00
C 73.77 71.68 73.72 69.31 74.00 68.00
C 71.45 60.70 70.00 71.00 70.00 71.00 Z"/>
</g>
<g fill="#424446" fill-opacity="0.91" stroke="None">
<path d="
M 28.00 72.00 
C 27.69 72.11 25.32 72.81 25.00 73.00
C 23.19 74.06 20.48 79.55 22.00 81.00
C 23.25 81.64 26.57 81.00 28.00 81.00
C 30.00 81.00 32.00 81.00 34.00 81.00
C 34.12 80.96 36.05 79.00 36.00 79.00
C 34.50 76.28 30.95 74.46 31.00 71.00
C 29.76 70.68 29.01 71.64 28.00 72.00 Z"/>
</g>
<g fill="#414346" fill-opacity="0.94" stroke="None">
<path d="
M 63.00 79.00 
C 63.38 79.07 64.71 80.92 65.00 81.00
C 65.50 81.00 66.50 81.00 67.00 81.00
C 67.50 81.00 68.00 81.00 68.00 81.00
C 69.67 81.00 74.66 81.88 76.00 81.00
C 78.94 78.16 74.49 75.90 74.00 73.00
C 72.40 71.82 71.37 73.23 70.00 71.00
C 69.74 71.54 64.11 78.12 63.00 79.00 Z"/>
</g>
<g fill="#F9F2EE" fill-opacity="1.00" stroke="None">
<path d="
M 44.00 75.00 
C 45.78 75.99 49.08 74.26 51.00 75.00
C 51.00 74.00 51.00 73.00 51.00 72.00
C 48.33 72.00 45.67 72.00 43.00 72.00
C 43.04 73.26 42.83 74.35 44.00 75.00 Z"/>
</g>
<g fill="#D2AD9D" fill-opacity="1.00" stroke="None">
<path d="
M 44.00 75.00 
C 46.65 77.65 54.95 74.46 51.00 72.00
C 51.00 73.00 51.00 74.00 51.00 75.00
C 49.08 74.26 45.78 75.99 44.00 75.00 Z"/>
</g>
<g fill="#090909" fill-opacity="0.11" stroke="None">
<path d="
M 34.00 81.00 
C 34.39 81.00 36.76 81.26 37.00 81.00
C 37.00 80.50 37.00 80.00 37.00 80.00
C 36.97 79.65 36.21 79.27 36.00 79.00
C 36.05 79.00 34.12 80.96 34.00 81.00 Z"/>
</g>
<g fill="#111111" fill-opacity="0.13" stroke="None">
<path d="
M 60.00 81.00 
C 61.67 81.00 63.33 81.00 65.00 81.00
C 64.71 80.92 63.38 79.07 63.00 79.00
C 62.79 79.16 60.25 80.88 60.00 81.00 Z"/>
</g>
<g fill="#9B6349" fill-opacity="1.00" stroke="None">
<path d="
M 37.00 81.00 
C 37.00 81.50 37.02 82.50 37.00 83.00
C 39.82 89.65 54.97 91.84 58.00 84.00
C 58.02 83.59 58.25 81.27 58.00 81.00
C 51.75 81.74 42.80 83.40 37.00 80.00
C 37.00 80.00 37.00 80.50 37.00 81.00 Z"/>
</g>
<g fill="#4F5855" fill-opacity="0.23" stroke="None">
<path d="
M 26.00 82.00 
C 26.49 81.94 27.00 82.00 27.00 82.00
C 27.35 81.97 27.75 81.09 28.00 81.00
C 26.57 81.00 23.25 81.64 22.00 81.00
C 23.15 82.10 24.21 82.23 26.00 82.00 Z"/>
</g>
<g fill="#39AD6F" fill-opacity="0.95" stroke="None">
<path d="
M 27.00 82.00 
C 25.80 83.54 24.22 84.68 23.00 86.00
C 19.53 90.54 17.48 93.63 17.00 98.00
C 18.90 100.41 23.85 99.51 26.00 102.00
C 29.83 101.24 28.95 95.66 31.00 93.00
C 33.02 93.98 33.90 97.95 34.00 100.00
C 36.98 101.94 43.21 99.35 47.00 100.00 C 50.79 100.65 56.99 100.00 61.00 100.00
C 61.50 100.00 62.00 100.00 62.00 100.00
C 62.01 97.23 61.52 93.70 64.00 92.00
C 67.05 94.44 65.98 101.42 70.00 102.00
C 72.14 99.52 77.11 100.39 79.00 98.00
C 78.52 93.60 76.51 90.59 73.00 86.00
C 72.73 85.75 72.00 86.00 72.00 86.00
C 70.20 85.12 67.76 82.81 67.00 81.00
C 66.50 81.00 65.50 81.00 65.00 81.00
C 63.33 81.00 61.67 81.00 60.00 81.00
C 59.50 81.00 58.49 80.94 58.00 81.00
C 58.25 81.27 58.02 83.59 58.00 84.00
C 57.48 94.99 36.46 94.40 37.00 83.00
C 37.02 82.50 37.00 81.50 37.00 81.00
C 36.76 81.26 34.39 81.00 34.00 81.00
C 32.00 81.00 30.00 81.00 28.00 81.00
C 27.75 81.09 27.35 81.97 27.00 82.00 Z"/>
</g>
<g fill="#45B97B" fill-opacity="0.75" stroke="None">
<path d="
M 72.00 86.00 
C 70.96 84.78 70.02 83.15 69.00 82.00
C 68.65 81.97 68.26 81.12 68.00 81.00
C 68.00 81.00 67.50 81.00 67.00 81.00
C 67.76 82.81 70.20 85.12 72.00 86.00 Z"/>
</g>
<g fill="#4F4F50" fill-opacity="0.23" stroke="None">
<path d="
M 69.00 82.00 
C 69.50 82.05 70.00 82.00 70.00 82.00
C 72.03 82.22 74.64 82.32 76.00 81.00
C 74.66 81.88 69.67 81.00 68.00 81.00
C 68.26 81.12 68.65 81.97 69.00 82.00 Z"/>
</g>
<g fill="#448877" fill-opacity="0.06" stroke="None">
<path d="
M 23.00 86.00 
C 24.22 84.68 25.80 83.54 27.00 82.00
C 27.00 82.00 26.49 81.94 26.00 82.00
C 24.99 83.18 23.98 84.72 23.00 86.00 Z"/>
</g>
<g fill="#448877" fill-opacity="0.06" stroke="None">
<path d="
M 72.00 86.00 
C 72.00 86.00 72.73 85.75 73.00 86.00
C 72.04 84.75 71.06 83.24 70.00 82.00
C 70.00 82.00 69.50 82.05 69.00 82.00
C 70.02 83.15 70.96 84.78 72.00 86.00 Z"/>
</g>
<g fill="#D2D4D1" fill-opacity="1.00" stroke="None">
<path d="
M 58.00 84.00 
C 54.97 91.84 39.82 89.65 37.00 83.00
C 36.46 94.40 57.48 94.99 58.00 84.00 Z"/>
</g>
<g fill="#AC7053" fill-opacity="0.91" stroke="None">
<path d="
M 26.00 102.00 
C 23.85 99.51 18.90 100.41 17.00 98.00
C 16.15 105.84 12.00 121.74 24.00 122.00 C 35.99 122.26 31.22 108.05 26.00 102.00 Z"/>
</g>
<g fill="#AC7053" fill-opacity="0.91" stroke="None">
<path d="
M 70.00 102.00 
C 64.07 108.87 61.22 123.03 73.00 122.00 C 84.78 120.97 79.79 105.23 79.00 98.00
C 77.11 100.39 72.14 99.52 70.00 102.00 Z"/>
</g>
<g fill="#3A3C40" fill-opacity="0.97" stroke="None">
<path d="
M 34.00 106.00 
C 42.51 103.15 54.32 107.25 62.00 103.00
C 62.00 102.00 62.03 101.00 62.00 100.00
C 62.00 100.00 61.50 100.00 61.00 100.00
C 55.09 104.37 40.34 99.64 34.00 100.00
C 34.05 101.00 33.90 104.74 34.00 106.00 Z"/>
</g>
<g fill="#387758" fill-opacity="1.00" stroke="None">
<path d="
M 61.00 100.00 
C 56.99 100.00 50.79 100.65 47.00 100.00 C 43.21 99.35 36.98 101.94 34.00 100.00
C 40.34 99.64 55.09 104.37 61.00 100.00 Z"/>
</g>
<g fill="#4D507C" fill-opacity="1.00" stroke="None">
<path d="
M 34.00 106.00 
C 37.95 105.26 44.29 106.99 48.00 106.00 C 51.71 105.01 59.50 108.24 62.00 105.00
C 62.00 104.50 62.00 103.50 62.00 103.00
C 54.32 107.25 42.51 103.15 34.00 106.00 Z"/>
</g>
<g fill="#6266B9" fill-opacity="0.96" stroke="None">
<path d="
M 34.00 106.00 
C 34.20 108.63 34.00 111.36 34.00 114.00
C 34.05 113.85 35.00 114.00 35.00 114.00
C 38.00 114.00 41.00 114.00 44.00 114.00
C 44.86 108.60 51.13 108.50 52.00 114.00
C 55.00 114.00 58.00 114.00 61.00 114.00
C 61.50 114.00 62.00 114.00 62.00 114.00
C 62.00 111.00 62.00 108.00 62.00 105.00
C 59.50 108.24 51.71 105.01 48.00 106.00 C 44.29 106.99 37.95 105.26 34.00 106.00 Z"/>
</g>
<g fill="#000000" fill-opacity="0.00" stroke="None">
<path d="
M 44.00 114.00 
C 43.75 115.57 44.00 117.40 44.00 119.00
C 44.00 121.00 44.00 123.00 44.00 125.00
C 44.00 126.00 44.00 127.00 44.00 128.00
L 52.00 128.00
C 52.00 127.00 52.00 126.00 52.00 125.00
C 52.00 123.00 52.00 121.00 52.00 119.00
C 52.00 117.40 52.25 115.57 52.00 114.00
C 51.13 108.50 44.86 108.60 44.00 114.00 Z"/>
</g>
<g fill="#B37A5F" fill-opacity="0.38" stroke="None">
<path d="
M 34.00 119.00 
C 34.04 118.86 35.00 119.00 35.00 119.00
C 35.31 118.10 35.31 114.90 35.00 114.00
C 35.00 114.00 34.05 113.85 34.00 114.00
C 34.00 115.39 33.55 117.69 34.00 119.00 Z"/>
</g>
<g fill="#AE7053" fill-opacity="1.00" stroke="None">
<path d="
M 35.00 119.00 
C 38.00 119.00 41.00 119.00 44.00 119.00
C 44.00 117.40 43.75 115.57 44.00 114.00
C 41.00 114.00 38.00 114.00 35.00 114.00
C 35.31 114.90 35.31 118.10 35.00 119.00 Z"/>
</g>
<g fill="#AE7053" fill-opacity="1.00" stroke="None">
<path d="
M 52.00 119.00 
C 55.00 119.00 58.00 119.00 61.00 119.00
C 60.69 118.10 60.69 114.90 61.00 114.00
C 58.00 114.00 55.00 114.00 52.00 114.00
C 52.25 115.57 52.00 117.40 52.00 119.00 Z"/>
</g>
<g fill="#B37A5F" fill-opacity="0.38" stroke="None">
<path d="
M 61.00 119.00 
C 61.50 119.00 62.00 119.00 62.00 119.00
C 62.45 117.69 62.00 115.39 62.00 114.00
C 62.00 114.00 61.50 114.00 61.00 114.00
C 60.69 114.90 60.69 118.10 61.00 119.00 Z"/>
</g>
<g fill="#A5B6C3" fill-opacity="0.96" stroke="None">
<path d="
M 32.00 123.00 
C 31.19 127.25 40.53 123.96 44.00 125.00
C 44.00 123.00 44.00 121.00 44.00 119.00
C 41.00 119.00 38.00 119.00 35.00 119.00
C 35.00 119.00 34.04 118.86 34.00 119.00
C 33.46 120.80 33.07 121.61 32.00 123.00 Z"/>
</g>
<g fill="#A5B6C3" fill-opacity="0.96" stroke="None">
<path d="
M 52.00 125.00 
C 55.40 123.90 64.83 127.35 64.00 123.00
C 62.94 121.62 62.53 120.77 62.00 119.00
C 62.00 119.00 61.50 119.00 61.00 119.00
C 58.00 119.00 55.00 119.00 52.00 119.00
C 52.00 121.00 52.00 123.00 52.00 125.00 Z"/>
</g>
<g fill="#D2D1D1" fill-opacity="0.96" stroke="None">
<path d="
M 29.00 128.00 
L 44.00 128.00
C 44.00 127.00 44.00 126.00 44.00 125.00
C 40.53 123.96 31.19 127.25 32.00 123.00
C 30.94 124.39 27.80 125.33 29.00 128.00 Z"/>
</g>
<g fill="#D2D1D1" fill-opacity="0.96" stroke="None">
<path d="
M 52.00 125.00 
C 52.00 126.00 52.00 127.00 52.00 128.00
L 67.00 128.00
C 68.13 125.23 65.16 124.51 64.00 123.00
C 64.83 127.35 55.40 123.90 52.00 125.00 Z"/>
</g>
</svg>